<?xml version="1.0" encoding="UTF-8"?>
<svg width="51px" height="51px" viewBox="0 0 51 51" version="1.1" xmlns="http://www.w3.org/2000/svg" xmlns:xlink="http://www.w3.org/1999/xlink">
    <!-- Generator: Sketch 52.2 (67145) - http://www.bohemiancoding.com/sketch -->
    <title>Group 8</title>
    <desc>Created with Sketch.</desc>
    <g id="Page-1" stroke="none" stroke-width="1" fill="none" fill-rule="evenodd">
        <g id="личный_кабинет3" transform="translate(-419.000000, -271.000000)">
            <g id="Group-2" transform="translate(398.000000, 248.000000)">
                <g id="Group-5">
                    <g id="Group-8" transform="translate(22.000000, 24.000000)">
                        <circle id="Oval" stroke="#E2DADA" fill="#FFFFFF" fill-rule="nonzero" cx="24.5" cy="24.5" r="24.5"></circle>
                        <g id="star-2" transform="translate(7.000000, 9.000000)">
                            <path d="M30.362967,10.392742 L21.6175804,9.57368219 L18.1436464,1.42778773 C17.9003939,0.857404091 17.0995568,0.857404091 16.8563696,1.42778773 L13.3824356,9.57361616 L4.63704903,10.392742 C4.02466729,10.4500577 3.77722976,11.2191974 4.23921342,11.6290574 L10.8376348,17.4825221 L8.90658886,26.1346172 C8.77136138,26.74046 9.41931552,27.2157576 9.94806285,26.8987384 L17.500008,22.3705342 L25.0519532,26.8987384 C25.5807659,27.2158237 26.2285893,26.74046 26.0934272,26.1346172 L24.1623159,17.4825221 L30.7608026,11.6290574 C31.2227863,11.2191974 30.9752834,10.4500577 30.362967,10.392742 Z" id="Path" fill="#FFDC64"></path>
                            <g id="Group" fill="#FFF082">
                                <path d="M7.92080469,0.531420732 C8.3735625,1.16660366 9.65148437,3.89446951 10.3820859,5.4842378 C10.4969687,5.73415244 10.1865195,5.95992073 9.98829687,5.77057317 C8.72744141,4.56647561 6.5715625,2.4770122 6.11880469,1.8417622 C5.76054297,1.33918293 5.8735,0.638402439 6.37114844,0.276542683 C6.86873047,-0.0853170732 7.56254297,0.0288414634 7.92080469,0.531420732 Z" id="Path"></path>
                                <path d="M26.0791953,0.531420732 C25.6264375,1.16660366 24.3485156,3.89446951 23.6179141,5.4842378 C23.5030312,5.73415244 23.8134805,5.95992073 24.0117031,5.77057317 C25.2725586,4.56647561 27.4283711,2.47694512 27.8811953,1.8417622 C28.239457,1.33918293 28.1265,0.638402439 27.6288516,0.276542683 C27.1312695,-0.0853170732 26.437457,0.0288414634 26.0791953,0.531420732 Z" id="Path"></path>
                                <path d="M33.2337383,19.1580427 C32.4970273,18.915372 29.5356406,18.5144756 27.8141914,18.2944756 C27.5435859,18.2598659 27.4249844,18.6272256 27.6637148,18.7604329 C29.182625,19.6079024 31.8085273,21.047561 32.5452383,21.2902317 C33.1281523,21.4822622 33.7548281,21.1606463 33.9449492,20.571811 C34.1350703,19.9829756 33.8166523,19.3500732 33.2337383,19.1580427 Z" id="Path"></path>
                                <path d="M0.766261719,19.1580427 C1.50297266,18.915372 4.46435937,18.5144756 6.18580859,18.2944756 C6.45641406,18.2598659 6.57501562,18.6272256 6.33628516,18.7604329 C4.817375,19.6079024 2.19147266,21.047561 1.45476172,21.2902317 C0.871847656,21.4822622 0.245171875,21.1606463 0.0550507812,20.571811 C-0.135070312,19.9829756 0.183347656,19.3500732 0.766261719,19.1580427 Z" id="Path"></path>
                                <path d="M15.9238203,31.8134756 C15.9238203,31.0307988 16.4646992,28.062811 16.791418,26.3415122 C16.84275,26.070939 17.2253164,26.070939 17.2766484,26.3415122 C17.6033672,28.062811 18.1442461,31.0307988 18.1442461,31.8134756 C18.1442461,32.4327622 17.6471953,32.9348049 17.0340664,32.9348049 C16.4208711,32.934872 15.9238203,32.4327622 15.9238203,31.8134756 Z" id="Path"></path>
                            </g>
                            <path d="M19,4.38998265 L17.6880873,1.42778816 C17.4354699,0.857403946 16.6038018,0.857403946 16.3512523,1.42778816 L12.7435772,9.57362491 L3.66157444,10.3927516 C3.02561694,10.4500673 2.76865345,11.2192078 3.24842277,11.6290683 L10.1008733,17.4825389 L8.09548503,26.1346428 C7.95505149,26.7404862 8.62795089,27.2157844 9.17705418,26.8987649 L10.2208665,26.296091 C11.9320777,15.5249549 16.7428093,7.61815394 19,4.38998265 Z" id="Path" fill="#FFC850"></path>
                        </g>
                    </g>
                </g>
            </g>
        </g>
    </g>
</svg>