<?xml version="1.0" encoding="UTF-8"?>
<svg width="46px" height="32px" viewBox="0 0 46 32" version="1.1" xmlns="http://www.w3.org/2000/svg" xmlns:xlink="http://www.w3.org/1999/xlink">
    <!-- Generator: Sketch 52.2 (67145) - http://www.bohemiancoding.com/sketch -->
    <title>Group 7</title>
    <desc>Created with Sketch.</desc>
    <g id="Page-1" stroke="none" stroke-width="1" fill="none" fill-rule="evenodd">
        <g id="личный_кабинет3" transform="translate(-476.000000, -668.000000)">
            <g id="Group-2" transform="translate(398.000000, 248.000000)">
                <g id="Group-3" transform="translate(0.000000, 360.000000)">
                    <g id="Group-7" transform="translate(78.000000, 60.000000)">
                        <g id="coin">
                            <path d="M17.3235294,32 C9.77021008,32 3.64705882,24.8365714 3.64705882,16 C3.64705882,7.16342857 9.77021008,0 17.3235294,0 C24.8768487,0 31,7.16342857 31,16 C31,24.8365714 24.8768487,32 17.3235294,32" id="XMLID_99_" fill="#FFD949"></path>
                            <path d="M3.58074866,16 C3.58074866,7.82742857 9.18163636,1.09028571 16.4117647,0.123428571 C15.8245219,0.0451428571 15.2277305,0 14.6213904,0 C6.54620535,0 0,7.16342857 0,16 C0,24.8365714 6.54620535,32 14.6213904,32 C15.2277305,32 15.8245219,31.9548571 16.4117647,31.8765714 C9.18163636,30.9097143 3.58074866,24.1725714 3.58074866,16" id="XMLID_132_" fill="#F4BF1A"></path>
                            <path d="M18.2824603,30.2222222 L18.2350183,30.2222222 C17.8488624,30.2222222 17.4599482,30.1973599 17.0793088,30.148819 C16.7764522,30.1097496 16.5607565,29.8155449 16.5966139,29.4905582 C16.6330229,29.1655715 16.9094002,28.9388504 17.2100501,28.9731842 C17.5476607,29.0163973 17.8924428,29.0382999 18.2350183,29.0382999 C18.5400815,29.0382999 18.8103906,29.3034985 18.8103906,29.6302611 C18.8103906,29.9570236 18.5880751,30.2222222 18.2824603,30.2222222 M21.4903127,29.58468 C21.2674456,29.58468 21.0572664,29.4384656 20.9739671,29.2010892 C20.8663951,28.8950453 21.0103761,28.5534837 21.2955798,28.4386432 C21.613331,28.3101877 21.9305305,28.1592376 22.236697,27.9905286 C22.5081094,27.8401705 22.8402035,27.9556029 22.9797713,28.2468478 C23.1187874,28.5375007 23.0117671,28.8944533 22.7403546,29.0436275 C22.3966759,29.2330551 22.0419641,29.4011721 21.684494,29.5462026 C21.6210541,29.5722489 21.5554076,29.58468 21.4903127,29.58468 M14.0237121,29.1324217 C13.9398611,29.1324217 13.8543552,29.1117031 13.7743657,29.0678979 C13.4351001,28.8826141 13.0991445,28.6748357 12.7764285,28.4475226 C12.5215656,28.2687504 12.4504025,27.9023264 12.6170012,27.6282484 C12.7847032,27.3553543 13.1256238,27.2783993 13.3810383,27.4571716 C13.669552,27.6602143 13.9702019,27.847274 14.2736102,28.0124312 C14.5450226,28.1604215 14.6536979,28.5167821 14.5157851,28.808027 C14.4186945,29.0140295 14.2245132,29.1324217 14.0237121,29.1324217 M25.1174202,27.0262239 C24.9773007,27.0262239 24.8366296,26.9688036 24.7290576,26.8545551 C24.5128103,26.6242822 24.5111554,26.2495708 24.7257477,26.0175221 C24.9657161,25.7582431 25.1990646,25.4788374 25.4191734,25.1875925 C25.6116998,24.9342331 25.9592401,24.8957556 26.1953469,25.1017581 C26.4314536,25.3077606 26.4678626,25.6806961 26.2753363,25.9346475 C26.0320581,26.2554904 25.7744369,26.5639022 25.5090926,26.8510034 C25.4009689,26.9676197 25.2586429,27.0262239 25.1174202,27.0262239 M10.6542258,26.1927426 C10.4947986,26.1927426 10.3364747,26.1187474 10.2272477,25.9766767 C9.98783105,25.6629373 9.75779245,25.3314391 9.54430338,24.9910614 C9.37384313,24.7199432 9.44059294,24.3517433 9.69324924,24.1688273 C9.94535389,23.9859113 10.288481,24.0569467 10.4589413,24.3286568 C10.6536742,24.6388445 10.86275,24.9407447 11.0806523,25.225478 C11.2737303,25.4782454 11.2395279,25.851181 11.0039728,26.0589593 C10.9019173,26.1489374 10.7772441,26.1927426 10.6542258,26.1927426 M27.5424794,23.151838 C27.4685581,23.151838 27.3940852,23.1358551 27.3223705,23.1027053 C27.0426833,22.9718818 26.9152518,22.6232167 27.0366151,22.3230924 C27.1750796,21.9833067 27.3014077,21.6304978 27.4122897,21.2759131 C27.5093803,20.9669094 27.8221666,20.7993844 28.1112319,20.9035695 C28.3997455,21.0083467 28.5553112,21.3433967 28.4582206,21.6535843 C28.3368573,22.040135 28.1989444,22.4249097 28.0483436,22.7960694 C27.9573212,23.0186468 27.7543135,23.151838 27.5424794,23.151838 M8.55133101,22.1058427 C8.32184406,22.1058427 8.10725169,21.9501569 8.02891721,21.704493 C7.90700226,21.3209021 7.79887861,20.9260641 7.70730449,20.530634 C7.63338321,20.2133428 7.81322154,19.8924999 8.10890665,19.813769 C8.40348845,19.7332623 8.70413842,19.9274256 8.77750805,20.2447167 C8.8619107,20.6075889 8.96120794,20.9704611 9.07319316,21.3220861 C9.17138709,21.6316818 9.01747637,21.9679157 8.72951438,22.0732848 C8.67103934,22.0951874 8.6103577,22.1058427 8.55133101,22.1058427 M28.5845487,18.6150477 C28.5702058,18.6150477 28.5558629,18.6144557 28.5415199,18.6132718 C28.23756,18.5878174 28.0108313,18.3030841 28.0340007,17.9769135 C28.0599283,17.618185 28.0731679,17.2517611 28.0731679,16.8888889 C28.0731679,16.5621263 28.3203077,16.277985 28.6248193,16.277985 C28.9293308,16.277985 29.1764706,16.5236488 29.1764706,16.8504114 L29.1764706,16.8888889 C29.1764706,17.2825431 29.1621277,17.679157 29.1339934,18.0686675 C29.1119274,18.3788551 28.8697525,18.6150477 28.5845487,18.6150477 M7.84576897,17.4873616 C7.54125744,17.4873616 7.29411765,17.2286746 7.29411765,16.901912 L7.29411765,16.8888889 C7.29411765,16.4851714 7.30901223,16.079086 7.33824975,15.683064 C7.36252241,15.3574853 7.62676339,15.1159652 7.93182657,15.1396436 C8.23578645,15.1656899 8.46251514,15.4510152 8.43824249,15.7765939 C8.41121157,16.1424259 8.39742029,16.5165453 8.39742029,16.8888889 C8.39742029,17.2156515 8.1502805,17.4873616 7.84576897,17.4873616 M28.2215622,13.9574972 C27.974974,13.9574972 27.7504519,13.7787249 27.6875637,13.5105665 C27.6020577,13.1465104 27.5022088,12.7842302 27.389672,12.4326052 C27.2909264,12.1236015 27.4448371,11.7867756 27.7327991,11.6808145 C28.0213127,11.5736696 28.3352023,11.7394187 28.4333963,12.0490144 C28.5558629,12.4314213 28.6645382,12.8256674 28.7572156,13.2205055 C28.8316885,13.5377967 28.6524018,13.8592316 28.3572684,13.9391464 C28.3125846,13.9521695 28.2673492,13.9574972 28.2215622,13.9574972 M8.54415954,12.8819037 C8.48513285,12.8819037 8.42555451,12.8712484 8.36652781,12.8499378 C8.07801417,12.7451607 7.9235518,12.4089268 8.02119409,12.0993311 C8.14310903,11.7145563 8.28157351,11.3303735 8.43327762,10.95803 C8.55574422,10.6579056 8.88011519,10.5223465 9.15980241,10.652578 C9.43893798,10.7834014 9.56636944,11.1326585 9.4444545,11.4321908 C9.30488671,11.7737524 9.17800691,12.1265613 9.06657334,12.4793702 C8.9876872,12.726218 8.77419814,12.8819037 8.54415954,12.8819037 M26.4562779,9.68945717 C26.2791979,9.68945717 26.1059793,9.59829515 25.998959,9.42899426 C25.8036744,9.11999053 25.5940469,8.81868229 25.375593,8.53394897 C25.1819634,8.28177352 25.2156141,7.90824602 25.4506176,7.70046765 C25.685621,7.49268928 26.033713,7.52879891 26.2273426,7.78097437 C26.467311,8.09412183 26.6979012,8.42502812 26.9124936,8.76540579 C27.0835055,9.03593204 27.0173073,9.40413189 26.7652027,9.58763985 C26.6703186,9.65630735 26.5632983,9.68945717 26.4562779,9.68945717 M10.638228,8.78908424 C10.5157614,8.78908424 10.3921915,8.74527911 10.2895843,8.65530101 C10.0534776,8.44870656 10.0187235,8.07577103 10.2118015,7.82241165 C10.4550797,7.50275262 10.7132525,7.19493281 10.9791485,6.90783165 C11.1942925,6.67696679 11.5434878,6.67519091 11.7591834,6.9054638 C11.9754308,7.13632866 11.9765341,7.51044811 11.7619417,7.74249689 C11.5214217,8.00236784 11.2869699,8.28118155 11.0657577,8.57183449 C10.9576341,8.71508909 10.7987585,8.78908424 10.638228,8.78908424 M23.3714437,6.40348073 C23.2682849,6.40348073 23.1640228,6.37269875 23.0713454,6.30758302 C22.7828318,6.10572426 22.4816302,5.91984846 22.176567,5.75469129 C21.9051545,5.60729296 21.7959276,5.2515243 21.9332887,4.95968744 C22.0706499,4.66903451 22.4016407,4.55005032 22.6741565,4.69804061 C23.015077,4.88214053 23.3510326,5.0899189 23.673197,5.31545611 C23.9286116,5.49422838 24.0008779,5.8612443 23.8342792,6.13473036 C23.7283621,6.30935891 23.5523854,6.40348073 23.3714437,6.40348073 M14.0038527,5.84111762 C13.8030516,5.84111762 13.609422,5.72331735 13.5117797,5.51790683 C13.3733152,5.22666193 13.4814389,4.87030131 13.7528513,4.72171906 C14.0965301,4.53406737 14.4517935,4.36535843 14.8098152,4.22210383 C15.0944673,4.10726336 15.4127701,4.26235719 15.5197905,4.56899307 C15.6262592,4.875037 15.4817265,5.21600663 15.1959712,5.3308471 C14.8771167,5.45871071 14.5599172,5.60847688 14.2531991,5.77659386 C14.1737613,5.82039898 14.0877037,5.84111762 14.0038527,5.84111762 M19.3030152,4.80577754 C19.2815008,4.80577754 19.2599864,4.80459362 19.238472,4.80163381 C18.9063779,4.76019653 18.5687673,4.73947789 18.2350183,4.73947789 C17.9305068,4.73947789 17.6717823,4.47427929 17.6717823,4.14751672 C17.6717823,3.82075416 17.9073374,3.55555556 18.2118489,3.55555556 L18.2350183,3.55555556 C18.6112445,3.55555556 18.9918839,3.579234 19.3659035,3.62599893 C19.6682084,3.66329249 19.885559,3.95690523 19.8502534,4.28189191 C19.8182576,4.5837921 19.5788409,4.80577754 19.3030152,4.80577754" id="XMLID_115_" fill="#F4BF1A" fill-rule="nonzero"></path>
                        </g>
                        <g id="coin" transform="translate(15.000000, 0.000000)">
                            <path d="M17.3235294,32 C9.77021008,32 3.64705882,24.8365714 3.64705882,16 C3.64705882,7.16342857 9.77021008,0 17.3235294,0 C24.8768487,0 31,7.16342857 31,16 C31,24.8365714 24.8768487,32 17.3235294,32" id="XMLID_99_" fill="#FFD949"></path>
                            <path d="M3.58074866,16 C3.58074866,7.82742857 9.18163636,1.09028571 16.4117647,0.123428571 C15.8245219,0.0451428571 15.2277305,0 14.6213904,0 C6.54620535,0 0,7.16342857 0,16 C0,24.8365714 6.54620535,32 14.6213904,32 C15.2277305,32 15.8245219,31.9548571 16.4117647,31.8765714 C9.18163636,30.9097143 3.58074866,24.1725714 3.58074866,16" id="XMLID_132_" fill="#F4BF1A"></path>
                            <path d="M18.2824603,30.2222222 L18.2350183,30.2222222 C17.8488624,30.2222222 17.4599482,30.1973599 17.0793088,30.148819 C16.7764522,30.1097496 16.5607565,29.8155449 16.5966139,29.4905582 C16.6330229,29.1655715 16.9094002,28.9388504 17.2100501,28.9731842 C17.5476607,29.0163973 17.8924428,29.0382999 18.2350183,29.0382999 C18.5400815,29.0382999 18.8103906,29.3034985 18.8103906,29.6302611 C18.8103906,29.9570236 18.5880751,30.2222222 18.2824603,30.2222222 M21.4903127,29.58468 C21.2674456,29.58468 21.0572664,29.4384656 20.9739671,29.2010892 C20.8663951,28.8950453 21.0103761,28.5534837 21.2955798,28.4386432 C21.613331,28.3101877 21.9305305,28.1592376 22.236697,27.9905286 C22.5081094,27.8401705 22.8402035,27.9556029 22.9797713,28.2468478 C23.1187874,28.5375007 23.0117671,28.8944533 22.7403546,29.0436275 C22.3966759,29.2330551 22.0419641,29.4011721 21.684494,29.5462026 C21.6210541,29.5722489 21.5554076,29.58468 21.4903127,29.58468 M14.0237121,29.1324217 C13.9398611,29.1324217 13.8543552,29.1117031 13.7743657,29.0678979 C13.4351001,28.8826141 13.0991445,28.6748357 12.7764285,28.4475226 C12.5215656,28.2687504 12.4504025,27.9023264 12.6170012,27.6282484 C12.7847032,27.3553543 13.1256238,27.2783993 13.3810383,27.4571716 C13.669552,27.6602143 13.9702019,27.847274 14.2736102,28.0124312 C14.5450226,28.1604215 14.6536979,28.5167821 14.5157851,28.808027 C14.4186945,29.0140295 14.2245132,29.1324217 14.0237121,29.1324217 M25.1174202,27.0262239 C24.9773007,27.0262239 24.8366296,26.9688036 24.7290576,26.8545551 C24.5128103,26.6242822 24.5111554,26.2495708 24.7257477,26.0175221 C24.9657161,25.7582431 25.1990646,25.4788374 25.4191734,25.1875925 C25.6116998,24.9342331 25.9592401,24.8957556 26.1953469,25.1017581 C26.4314536,25.3077606 26.4678626,25.6806961 26.2753363,25.9346475 C26.0320581,26.2554904 25.7744369,26.5639022 25.5090926,26.8510034 C25.4009689,26.9676197 25.2586429,27.0262239 25.1174202,27.0262239 M10.6542258,26.1927426 C10.4947986,26.1927426 10.3364747,26.1187474 10.2272477,25.9766767 C9.98783105,25.6629373 9.75779245,25.3314391 9.54430338,24.9910614 C9.37384313,24.7199432 9.44059294,24.3517433 9.69324924,24.1688273 C9.94535389,23.9859113 10.288481,24.0569467 10.4589413,24.3286568 C10.6536742,24.6388445 10.86275,24.9407447 11.0806523,25.225478 C11.2737303,25.4782454 11.2395279,25.851181 11.0039728,26.0589593 C10.9019173,26.1489374 10.7772441,26.1927426 10.6542258,26.1927426 M27.5424794,23.151838 C27.4685581,23.151838 27.3940852,23.1358551 27.3223705,23.1027053 C27.0426833,22.9718818 26.9152518,22.6232167 27.0366151,22.3230924 C27.1750796,21.9833067 27.3014077,21.6304978 27.4122897,21.2759131 C27.5093803,20.9669094 27.8221666,20.7993844 28.1112319,20.9035695 C28.3997455,21.0083467 28.5553112,21.3433967 28.4582206,21.6535843 C28.3368573,22.040135 28.1989444,22.4249097 28.0483436,22.7960694 C27.9573212,23.0186468 27.7543135,23.151838 27.5424794,23.151838 M8.55133101,22.1058427 C8.32184406,22.1058427 8.10725169,21.9501569 8.02891721,21.704493 C7.90700226,21.3209021 7.79887861,20.9260641 7.70730449,20.530634 C7.63338321,20.2133428 7.81322154,19.8924999 8.10890665,19.813769 C8.40348845,19.7332623 8.70413842,19.9274256 8.77750805,20.2447167 C8.8619107,20.6075889 8.96120794,20.9704611 9.07319316,21.3220861 C9.17138709,21.6316818 9.01747637,21.9679157 8.72951438,22.0732848 C8.67103934,22.0951874 8.6103577,22.1058427 8.55133101,22.1058427 M28.5845487,18.6150477 C28.5702058,18.6150477 28.5558629,18.6144557 28.5415199,18.6132718 C28.23756,18.5878174 28.0108313,18.3030841 28.0340007,17.9769135 C28.0599283,17.618185 28.0731679,17.2517611 28.0731679,16.8888889 C28.0731679,16.5621263 28.3203077,16.277985 28.6248193,16.277985 C28.9293308,16.277985 29.1764706,16.5236488 29.1764706,16.8504114 L29.1764706,16.8888889 C29.1764706,17.2825431 29.1621277,17.679157 29.1339934,18.0686675 C29.1119274,18.3788551 28.8697525,18.6150477 28.5845487,18.6150477 M7.84576897,17.4873616 C7.54125744,17.4873616 7.29411765,17.2286746 7.29411765,16.901912 L7.29411765,16.8888889 C7.29411765,16.4851714 7.30901223,16.079086 7.33824975,15.683064 C7.36252241,15.3574853 7.62676339,15.1159652 7.93182657,15.1396436 C8.23578645,15.1656899 8.46251514,15.4510152 8.43824249,15.7765939 C8.41121157,16.1424259 8.39742029,16.5165453 8.39742029,16.8888889 C8.39742029,17.2156515 8.1502805,17.4873616 7.84576897,17.4873616 M28.2215622,13.9574972 C27.974974,13.9574972 27.7504519,13.7787249 27.6875637,13.5105665 C27.6020577,13.1465104 27.5022088,12.7842302 27.389672,12.4326052 C27.2909264,12.1236015 27.4448371,11.7867756 27.7327991,11.6808145 C28.0213127,11.5736696 28.3352023,11.7394187 28.4333963,12.0490144 C28.5558629,12.4314213 28.6645382,12.8256674 28.7572156,13.2205055 C28.8316885,13.5377967 28.6524018,13.8592316 28.3572684,13.9391464 C28.3125846,13.9521695 28.2673492,13.9574972 28.2215622,13.9574972 M8.54415954,12.8819037 C8.48513285,12.8819037 8.42555451,12.8712484 8.36652781,12.8499378 C8.07801417,12.7451607 7.9235518,12.4089268 8.02119409,12.0993311 C8.14310903,11.7145563 8.28157351,11.3303735 8.43327762,10.95803 C8.55574422,10.6579056 8.88011519,10.5223465 9.15980241,10.652578 C9.43893798,10.7834014 9.56636944,11.1326585 9.4444545,11.4321908 C9.30488671,11.7737524 9.17800691,12.1265613 9.06657334,12.4793702 C8.9876872,12.726218 8.77419814,12.8819037 8.54415954,12.8819037 M26.4562779,9.68945717 C26.2791979,9.68945717 26.1059793,9.59829515 25.998959,9.42899426 C25.8036744,9.11999053 25.5940469,8.81868229 25.375593,8.53394897 C25.1819634,8.28177352 25.2156141,7.90824602 25.4506176,7.70046765 C25.685621,7.49268928 26.033713,7.52879891 26.2273426,7.78097437 C26.467311,8.09412183 26.6979012,8.42502812 26.9124936,8.76540579 C27.0835055,9.03593204 27.0173073,9.40413189 26.7652027,9.58763985 C26.6703186,9.65630735 26.5632983,9.68945717 26.4562779,9.68945717 M10.638228,8.78908424 C10.5157614,8.78908424 10.3921915,8.74527911 10.2895843,8.65530101 C10.0534776,8.44870656 10.0187235,8.07577103 10.2118015,7.82241165 C10.4550797,7.50275262 10.7132525,7.19493281 10.9791485,6.90783165 C11.1942925,6.67696679 11.5434878,6.67519091 11.7591834,6.9054638 C11.9754308,7.13632866 11.9765341,7.51044811 11.7619417,7.74249689 C11.5214217,8.00236784 11.2869699,8.28118155 11.0657577,8.57183449 C10.9576341,8.71508909 10.7987585,8.78908424 10.638228,8.78908424 M23.3714437,6.40348073 C23.2682849,6.40348073 23.1640228,6.37269875 23.0713454,6.30758302 C22.7828318,6.10572426 22.4816302,5.91984846 22.176567,5.75469129 C21.9051545,5.60729296 21.7959276,5.2515243 21.9332887,4.95968744 C22.0706499,4.66903451 22.4016407,4.55005032 22.6741565,4.69804061 C23.015077,4.88214053 23.3510326,5.0899189 23.673197,5.31545611 C23.9286116,5.49422838 24.0008779,5.8612443 23.8342792,6.13473036 C23.7283621,6.30935891 23.5523854,6.40348073 23.3714437,6.40348073 M14.0038527,5.84111762 C13.8030516,5.84111762 13.609422,5.72331735 13.5117797,5.51790683 C13.3733152,5.22666193 13.4814389,4.87030131 13.7528513,4.72171906 C14.0965301,4.53406737 14.4517935,4.36535843 14.8098152,4.22210383 C15.0944673,4.10726336 15.4127701,4.26235719 15.5197905,4.56899307 C15.6262592,4.875037 15.4817265,5.21600663 15.1959712,5.3308471 C14.8771167,5.45871071 14.5599172,5.60847688 14.2531991,5.77659386 C14.1737613,5.82039898 14.0877037,5.84111762 14.0038527,5.84111762 M19.3030152,4.80577754 C19.2815008,4.80577754 19.2599864,4.80459362 19.238472,4.80163381 C18.9063779,4.76019653 18.5687673,4.73947789 18.2350183,4.73947789 C17.9305068,4.73947789 17.6717823,4.47427929 17.6717823,4.14751672 C17.6717823,3.82075416 17.9073374,3.55555556 18.2118489,3.55555556 L18.2350183,3.55555556 C18.6112445,3.55555556 18.9918839,3.579234 19.3659035,3.62599893 C19.6682084,3.66329249 19.885559,3.95690523 19.8502534,4.28189191 C19.8182576,4.5837921 19.5788409,4.80577754 19.3030152,4.80577754" id="XMLID_115_" fill="#F4BF1A" fill-rule="nonzero"></path>
                        </g>
                    </g>
                </g>
            </g>
        </g>
    </g>
</svg>