<?xml version="1.0" encoding="UTF-8"?>
<svg width="33px" height="27px" viewBox="0 0 33 27" version="1.1" xmlns="http://www.w3.org/2000/svg" xmlns:xlink="http://www.w3.org/1999/xlink">
    <!-- Generator: Sketch 52.2 (67145) - http://www.bohemiancoding.com/sketch -->
    <title>credit-card</title>
    <desc>Created with Sketch.</desc>
    <g id="Page-1" stroke="none" stroke-width="1" fill="none" fill-rule="evenodd">
        <g id="форма_публикация" transform="translate(-417.000000, -2011.000000)" fill="#000000">
            <g id="credit-card" transform="translate(417.000000, 2011.000000)">
                <path d="M17.5555375,19 L26.4444625,19 C26.777798,19 27,18.7818379 27,18.4545629 L27,13.5454371 C27,13.2181621 26.777798,13 26.4444625,13 L17.5555375,13 C17.222202,13 17,13.2181621 17,13.5454371 L17,18.4545629 C16.9999349,18.781774 17.222202,19 17.5555375,19 Z M18.111075,14.0908742 L25.8889251,14.0908742 L25.8889251,17.9090619 L18.111075,17.9090619 L18.111075,14.0908742 Z" id="Shape" fill-rule="nonzero"></path>
                <path d="M2.59997891,12 L7.40002109,12 C7.7600225,12 8,11.8000117 8,11.5 C8,11.1999883 7.7600225,11 7.40002109,11 L2.59997891,11 C2.2399775,11 2,11.1999883 2,11.5 C2,11.8000117 2.2399775,12 2.59997891,12 Z" id="Path"></path>
                <path d="M9.59997891,12 L14.4000211,12 C14.7600225,12 15,11.8000117 15,11.5 C15,11.1999883 14.7600225,11 14.4000211,11 L9.59997891,11 C9.2399775,11 9,11.1999883 9,11.5 C9,11.8000117 9.2399775,12 9.59997891,12 Z" id="Path"></path>
                <path d="M2.53331667,14 L9.46668333,14 C9.78668583,14 10,13.8000117 10,13.5 C10,13.1999883 9.78668583,13 9.46668333,13 L2.53331667,13 C2.21331417,13 2,13.1999883 2,13.5 C2,13.8000117 2.21331417,14 2.53331667,14 Z" id="Path"></path>
                <path d="M14.4000141,13 L12.5999859,13 C12.2399803,13 12,13.1999883 12,13.5 C12,13.8000117 12.2399803,14 12.5999859,14 L14.4000141,14 C14.7600197,14 15,13.8000117 15,13.5 C15,13.1999883 14.7600197,13 14.4000141,13 Z" id="Path"></path>
                <path d="M32.4948523,5.84079946 C32.109994,5.3448807 31.6151485,5.06934875 31.0103159,5.01426819 L29.690728,4.85399861 L29.690728,3.30606051 L29.690728,2.20406187 C29.690728,0.991837525 28.7010371,0 27.4914363,0 L2.19929171,0 C0.989690933,-6.45727556e-05 0,0.991772953 0,2.20406187 L0,3.30612508 L0,7.71431339 L0,19.8367505 C0,20.8320104 0.667332617,21.6782364 1.57558023,21.9494419 C1.54787404,23.0640968 2.3894335,24.0317841 3.51894405,24.1347131 L28.9210113,27 C28.9759727,27 29.0859598,27 29.1409212,27 C30.2405992,27 31.2302902,26.1734687 31.3402129,25.1265506 L32.9896978,7.43878144 C33.0446591,6.88771754 32.8797106,6.28157309 32.4948523,5.84079946 Z M1.09967807,3.85712441 L28.5911144,3.85712441 L28.5911144,5.28980014 L28.5911144,7.16324949 L1.09967807,7.16324949 L1.09967807,3.85712441 Z M2.19929171,1.10199865 L27.4913718,1.10199865 C28.0962045,1.10199865 28.5910499,1.59791741 28.5910499,2.20406187 L28.5910499,2.75506119 L1.09967807,2.75506119 L1.09967807,2.20406187 C1.09967807,1.59791741 1.59452354,1.10199865 2.19929171,1.10199865 Z M1.09967807,19.8366859 L1.09967807,8.26524814 L28.5911144,8.26524814 L28.5911144,19.8366859 C28.5911144,20.4428304 28.0962689,20.9387492 27.4914363,20.9387492 L2.25431749,20.9387492 L2.19935614,20.9387492 C1.59452354,20.9387492 1.09967807,20.4428304 1.09967807,19.8366859 Z M31.8900197,7.21833005 L30.2405348,24.9060993 C30.1855735,25.5122437 29.6357022,25.9530173 29.030934,25.8979368 L3.68382811,23.0326499 C3.13402129,22.9775693 2.74909853,22.5367311 2.69413717,22.0408124 L27.4913718,22.0408124 C28.7009726,22.0408124 29.6906636,21.0489748 29.6906636,19.8367505 L29.6906636,7.71424882 L29.6906636,5.89588002 L30.9552901,6.00610571 C31.2302257,6.00610571 31.5050969,6.17141197 31.6700454,6.39179878 C31.8350583,6.6121856 31.9450455,6.9427981 31.8900197,7.21833005 Z" id="Shape" fill-rule="nonzero"></path>
            </g>
        </g>
    </g>
</svg>