<?xml version="1.0" encoding="UTF-8"?>
<svg width="65px" height="81px" viewBox="0 0 65 81" version="1.1" xmlns="http://www.w3.org/2000/svg" xmlns:xlink="http://www.w3.org/1999/xlink">
    <!-- Generator: Sketch 52.2 (67145) - http://www.bohemiancoding.com/sketch -->
    <title>Bitmap</title>
    <desc>Created with Sketch.</desc>
    <g id="Page-1" stroke="none" stroke-width="1" fill="none" fill-rule="evenodd">
        <g id="Главная2" transform="translate(-362.000000, -2010.000000)">
            <g id="Group-2" transform="translate(362.000000, 2008.000000)">
                <g id="Group-4" transform="translate(0.000000, 2.000000)">
                    <g id="Bitmap">
                        <g id="doc">
                            <path d="M46.0680025,0 L2.21084099,0 C0.989816029,0 0,0.947410714 0,2.78582143 L0,79.5535714 C0,80.0525893 0.989816029,81 2.21084099,81 L62.7694479,81 C63.9904729,81 64.9802889,80.0525893 64.9802889,79.5535714 L64.9802889,18.77175 C64.9802889,17.7650357 64.8397501,17.4410357 64.5919183,17.202375 L47.0079499,0.371732143 C46.758607,0.134517857 46.420105,0 46.0680025,0 Z" id="Path" fill="#E9E9E0"></path>
                            <polygon id="Path" fill="#D9D7CA" points="46.8845122 0 46.8845122 17.4705882 64.9802889 17.4705882"></polygon>
                            <path d="M18.1985936,18.2647059 L8.94507142,18.2647059 C8.09374738,18.2647059 7.40281772,17.7310588 7.40281772,17.0735294 C7.40281772,16.416 8.09374738,15.8823529 8.94507142,15.8823529 L18.1985936,15.8823529 C19.0499176,15.8823529 19.7408473,16.416 19.7408473,17.0735294 C19.7408473,17.7310588 19.0499176,18.2647059 18.1985936,18.2647059 Z" id="Path" fill="#8697CB"></path>
                            <path d="M22.358005,26.2058824 L8.89833646,26.2058824 C8.07281012,26.2058824 7.40281772,25.6722353 7.40281772,25.0147059 C7.40281772,24.3571765 8.07281012,23.8235294 8.89833646,23.8235294 L22.358005,23.8235294 C23.1835314,23.8235294 23.8535238,24.3571765 23.8535238,25.0147059 C23.8535238,25.6722353 23.1835314,26.2058824 22.358005,26.2058824 Z" id="Path" fill="#8697CB"></path>
                            <path d="M29.2000032,26.2058824 C28.8792145,26.2058824 28.5584257,26.0740289 28.3240031,25.8582686 C28.1019186,25.6305216 27.9662003,25.3188679 27.9662003,25.0072142 C27.9662003,24.6955605 28.1019186,24.3839068 28.3240031,24.1561598 C28.7805102,23.7126526 29.6194962,23.7126526 30.0760033,24.1561598 C30.2980879,24.3839068 30.4338062,24.6955605 30.4338062,25.0072142 C30.4338062,25.3188679 30.2980879,25.6305216 30.0760033,25.8582686 C29.8415808,26.0740289 29.520792,26.2058824 29.2000032,26.2058824 Z" id="Path" fill="#8697CB"></path>
                            <path d="M46.9667658,26.2058824 L34.4642292,26.2058824 C33.6015542,26.2058824 32.9014121,25.6722353 32.9014121,25.0147059 C32.9014121,24.3571765 33.6015542,23.8235294 34.4642292,23.8235294 L46.9667658,23.8235294 C47.8294408,23.8235294 48.5295829,24.3571765 48.5295829,25.0147059 C48.5295829,25.6722353 47.8294408,26.2058824 46.9667658,26.2058824 Z" id="Path" fill="#8697CB"></path>
                            <path d="M8.63662068,47.6470588 C8.31583191,47.6470588 7.99504314,47.5152053 7.76062058,47.2994451 C7.53853605,47.0716981 7.40281772,46.7600444 7.40281772,46.4483907 C7.40281772,46.136737 7.53853605,45.8250832 7.76062058,45.5973363 C8.21712767,45.1538291 9.05611368,45.1538291 9.51262077,45.5973363 C9.73470531,45.8250832 9.87042363,46.1247503 9.87042363,46.4483907 C9.87042363,46.7600444 9.73470531,47.0716981 9.51262077,47.2994451 C9.27819821,47.5152053 8.95740945,47.6470588 8.63662068,47.6470588 Z" id="Path" fill="#8697CB"></path>
                            <path d="M27.2259185,47.6470588 L14.7233819,47.6470588 C13.8607069,47.6470588 13.1605648,47.1134118 13.1605648,46.4558824 C13.1605648,45.7983529 13.8607069,45.2647059 14.7233819,45.2647059 L27.2259185,45.2647059 C28.0885935,45.2647059 28.7887356,45.7983529 28.7887356,46.4558824 C28.7887356,47.1134118 28.0885935,47.6470588 27.2259185,47.6470588 Z" id="Path" fill="#8697CB"></path>
                            <path d="M56.1380344,26.2058824 L53.2591608,26.2058824 C52.4645917,26.2058824 51.8197241,25.6722353 51.8197241,25.0147059 C51.8197241,24.3571765 52.4645917,23.8235294 53.2591608,23.8235294 L56.1380344,23.8235294 C56.9326035,23.8235294 57.5774712,24.3571765 57.5774712,25.0147059 C57.5774712,25.6722353 56.9326035,26.2058824 56.1380344,26.2058824 Z" id="Path" fill="#8697CB"></path>
                            <path d="M42.0863897,32.5588235 L8.91079911,32.5588235 C8.07839339,32.5588235 7.40281772,32.0251765 7.40281772,31.3676471 C7.40281772,30.7101176 8.07839339,30.1764706 8.91079911,30.1764706 L42.0863897,30.1764706 C42.9187954,30.1764706 43.594371,30.7101176 43.594371,31.3676471 C43.594371,32.0251765 42.9187954,32.5588235 42.0863897,32.5588235 Z" id="Path" fill="#8697CB"></path>
                            <path d="M56.0352175,32.5588235 L46.7816953,32.5588235 C45.9303713,32.5588235 45.2394416,32.0251765 45.2394416,31.3676471 C45.2394416,30.7101176 45.9303713,30.1764706 46.7816953,30.1764706 L56.0352175,30.1764706 C56.8865415,30.1764706 57.5774712,30.7101176 57.5774712,31.3676471 C57.5774712,32.0251765 56.8865415,32.5588235 56.0352175,32.5588235 Z" id="Path" fill="#8697CB"></path>
                            <path d="M15.6281707,39.7058824 L9.04788833,39.7058824 C8.13980935,39.7058824 7.40281772,39.1722353 7.40281772,38.5147059 C7.40281772,37.8571765 8.13980935,37.3235294 9.04788833,37.3235294 L15.6281707,37.3235294 C16.5362497,37.3235294 17.2732414,37.8571765 17.2732414,38.5147059 C17.2732414,39.1722353 16.5362497,39.7058824 15.6281707,39.7058824 Z" id="Path" fill="#8697CB"></path>
                            <path d="M35.5061072,39.7058824 L20.4262933,39.7058824 C19.5938876,39.7058824 18.918312,39.1722353 18.918312,38.5147059 C18.918312,37.8571765 19.5938876,37.3235294 20.4262933,37.3235294 L35.5061072,37.3235294 C36.338513,37.3235294 37.0140886,37.8571765 37.0140886,38.5147059 C37.0140886,39.1722353 36.338513,39.7058824 35.5061072,39.7058824 Z" id="Path" fill="#8697CB"></path>
                            <path d="M56.0819525,39.7058824 L42.6222839,39.7058824 C41.7967575,39.7058824 41.1267651,39.1722353 41.1267651,38.5147059 C41.1267651,37.8571765 41.7967575,37.3235294 42.6222839,37.3235294 L56.0819525,37.3235294 C56.9074788,37.3235294 57.5774712,37.8571765 57.5774712,38.5147059 C57.5774712,39.1722353 56.9074788,39.7058824 56.0819525,39.7058824 Z" id="Path" fill="#8697CB"></path>
                            <path d="M62.7694479,81 L2.21084099,81 C0.989816029,81 0,80.0514965 0,78.8814343 L0,56.3823529 L64.9802889,56.3823529 L64.9802889,78.8814343 C64.9802889,80.0514965 63.9904729,81 62.7694479,81 Z" id="Path" fill="#0096E6"></path>
                            <g id="Group" transform="translate(13.160565, 61.941176)" fill="#FFFFFF">
                                <path d="M12.7346091,7.47352941 C12.7346091,8.69264706 12.6012702,9.73529412 12.3345925,10.6 C12.0679148,11.4647059 11.7308222,12.1882353 11.3203184,12.7720588 C10.9098145,13.3558824 10.4498704,13.8147059 9.93748963,14.15 C9.42510889,14.4852941 8.93070642,14.7352941 8.45278404,14.9044118 C7.97486165,15.0720588 7.53739037,15.1794118 7.1418684,15.2264706 C6.74634642,15.2705882 6.45270132,15.2941176 6.26243128,15.2941176 L0.548337284,15.2941176 L0.548337284,0.476470588 L5.09384362,0.476470588 C6.36430815,0.476470588 7.48045918,0.675 8.44229671,1.06911765 C9.40413424,1.46323529 10.2041673,1.99117647 10.8393996,2.64705882 C11.4746319,3.30294118 11.9480597,4.05147059 12.2626794,4.88823529 C12.5772992,5.72647059 12.7346091,6.58823529 12.7346091,7.47352941 Z M5.44292173,13.525 C7.10890823,13.525 8.31045605,13.0029412 9.04756519,11.9573529 C9.78467433,10.9117647 10.1532289,9.39705882 10.1532289,7.41323529 C10.1532289,6.79705882 10.0783194,6.18676471 9.9285005,5.58382353 C9.77718338,4.98088235 9.48803284,4.43529412 9.05805252,3.94558824 C8.62807219,3.45588235 8.04377836,3.06029412 7.30666922,2.75882353 C6.56956009,2.45735294 5.61371531,2.30588235 4.4391349,2.30588235 L3.00536774,2.30588235 L3.00536774,13.525 L5.44292173,13.525 Z" id="Shape" fill-rule="nonzero"></path>
                                <path d="M27.6790473,7.81470588 C27.6790473,9.06176471 27.5187411,10.1602941 27.1981286,11.1117647 C26.8775161,12.0632353 26.4325538,12.8544118 25.8662383,13.4838235 C25.2999227,14.1147059 24.6377231,14.5897059 23.8796393,14.9117647 C23.1215555,15.2338235 22.2915586,15.3941176 21.3911468,15.3941176 C20.4907351,15.3941176 19.6607382,15.2338235 18.9026544,14.9117647 C18.1445706,14.5897059 17.482371,14.1147059 16.9160554,13.4838235 C16.3497398,12.8529412 15.9047776,12.0632353 15.5841651,11.1117647 C15.2635526,10.1602941 15.1032463,9.06029412 15.1032463,7.81470588 C15.1032463,6.56911765 15.2635526,5.47205882 15.5841651,4.52794118 C15.9047776,3.58235294 16.3482417,2.79558824 16.9160554,2.16617647 C17.482371,1.53529412 18.1445706,1.05735294 18.9026544,0.727941176 C19.6607382,0.398529412 20.4907351,0.235294118 21.3911468,0.235294118 C22.2915586,0.235294118 23.1215555,0.398529412 23.8796393,0.727941176 C24.6377231,1.05735294 25.2999227,1.53529412 25.8662383,2.16617647 C26.4325538,2.79705882 26.8760179,3.58382353 27.1981286,4.52794118 C27.5172429,5.47205882 27.6790473,6.56764706 27.6790473,7.81470588 Z M21.3282229,13.425 C21.8331127,13.425 22.3140315,13.3279412 22.7724774,13.1338235 C23.2294251,12.9397059 23.639929,12.6205882 24.0009926,12.1794118 C24.3620562,11.7367647 24.6467122,11.1573529 24.8504659,10.4397059 C25.0542197,9.72205882 25.1635875,8.84852941 25.1785694,7.81617647 C25.1650857,6.81029412 25.0587143,5.95588235 24.8609533,5.25294118 C24.6631923,4.54852941 24.3905218,3.96911765 24.0414437,3.51323529 C23.6923656,3.05735294 23.2968436,2.72941176 22.8533796,2.52794118 C22.4099156,2.32647059 21.9424805,2.22647059 21.4495762,2.22647059 C20.9446864,2.22647059 20.4622695,2.31911765 20.0053217,2.50735294 C19.5468758,2.69558824 19.1378701,3.01323529 18.7768065,3.46176471 C18.4142447,3.91176471 18.1310869,4.48970588 17.9273332,5.20147059 C17.7235794,5.91323529 17.6127134,6.78235294 17.5992297,7.81470588 C17.6127134,8.82058824 17.7190849,9.67794118 17.9168459,10.3882353 C18.1146068,11.0985294 18.3872773,11.6779412 18.7363554,12.1279412 C19.0854335,12.5779412 19.4809555,12.9044118 19.9244195,13.1132353 C20.3693817,13.3205882 20.8368168,13.425 21.3282229,13.425 Z" id="Shape" fill-rule="nonzero"></path>
                                <path d="M41.360512,13.7867647 C40.8001892,14.3220588 40.164957,14.725 39.4563134,14.9926471 C38.7461717,15.2617647 37.9820952,15.3941176 37.1625856,15.3941176 C36.2606757,15.3941176 35.432177,15.2338235 34.6740932,14.9117647 C33.9160094,14.5897059 33.2538097,14.1147059 32.6874942,13.4838235 C32.1211786,12.8529412 31.6762164,12.0632353 31.3556039,11.1117647 C31.0349914,10.1602941 30.8746851,9.06029412 30.8746851,7.81470588 C30.8746851,6.56911765 31.0349914,5.47205882 31.3556039,4.52794118 C31.6762164,3.58235294 32.1196804,2.79558824 32.6874942,2.16617647 C33.2538097,1.53529412 33.9190058,1.05735294 34.6845805,0.727941176 C35.4486571,0.398529412 36.2756576,0.235294118 37.1625856,0.235294118 C37.9820952,0.235294118 38.7461717,0.369117647 39.4563134,0.636764706 C40.1664552,0.905882353 40.8001892,1.30735294 41.360512,1.84264706 L39.6600672,3.33088235 C39.31848,2.94117647 38.9394381,2.66029412 38.5229415,2.48676471 C38.1064449,2.31323529 37.6734682,2.225 37.2225132,2.225 C36.7176234,2.225 36.2352064,2.31764706 35.7782587,2.50588235 C35.3198128,2.69411765 34.9108071,3.01176471 34.5497435,3.46029412 C34.1871817,3.91029412 33.9040239,4.48823529 33.7002701,5.2 C33.4965164,5.91176471 33.3856504,6.78088235 33.3721667,7.81323529 C33.3856504,8.81911765 33.4920218,9.67647059 33.6897828,10.3867647 C33.8875438,11.0970588 34.1602143,11.6764706 34.5092924,12.1264706 C34.8583705,12.5764706 35.2538924,12.9029412 35.6973565,13.1117647 C36.1408205,13.3205882 36.6082556,13.4235294 37.1011599,13.4235294 C37.5940641,13.4235294 38.0540083,13.3352941 38.4839886,13.1617647 C38.9139689,12.9882353 39.3064945,12.7058824 39.6615654,12.3176471 L41.360512,13.7867647 Z" id="Path"></path>
                            </g>
                        </g>
                    </g>
                </g>
            </g>
        </g>
    </g>
</svg>