<?xml version="1.0" encoding="UTF-8"?>
<svg width="29px" height="26px" viewBox="0 0 29 26" version="1.1" xmlns="http://www.w3.org/2000/svg" xmlns:xlink="http://www.w3.org/1999/xlink">
    <!-- Generator: Sketch 52.2 (67145) - http://www.bohemiancoding.com/sketch -->
    <title>list</title>
    <desc>Created with Sketch.</desc>
    <g id="Page-1" stroke="none" stroke-width="1" fill="none" fill-rule="evenodd">
        <g id="форма_публикация" transform="translate(-710.000000, -2013.000000)" fill="#000000">
            <g id="list" transform="translate(710.000000, 2013.000000)">
                <path d="M28.567504,14.8420492 L27.1569892,13.431655 C26.5809053,12.8556202 25.6440265,12.85661 25.0679426,13.431655 L17.4511628,21.0482789 L16.4014429,24.897913 L16.1445807,25.1547532 C15.9525527,25.3467648 15.9520578,25.6565566 16.1416112,25.8500528 L16.1391366,25.8599503 L16.1485401,25.8574759 C16.244554,25.9515022 16.3692732,26 16.4944874,26 C16.6211862,26 16.7478851,25.9515022 16.844394,25.8550016 L17.1017511,25.5976665 L20.9512191,24.5480362 L28.5679989,16.9314123 C29.1440828,16.3553775 29.1440828,15.4180839 28.567504,14.8420492 Z M18.5939272,21.305614 L23.6633668,16.2371024 L25.7633016,18.3363629 L20.693862,23.4053694 L18.5939272,21.305614 Z M18.1470168,22.2582487 L19.740651,23.8517468 L17.5491565,24.449556 L18.1470168,22.2582487 Z M27.8676907,16.2316587 L26.46262,17.6366094 L24.3626852,15.5373489 L25.7677559,14.1323982 C25.9582991,13.9418713 26.2676225,13.9423661 26.4576708,14.1319033 L27.8681856,15.5422976 C28.0582339,15.7318348 28.0582339,16.0416267 27.8676907,16.2316587 Z" id="Shape" fill-rule="nonzero"></path>
                <path d="M13.55,6 C13.2464,6 13,6.447 13,7 C13,7.553 13.2464,8 13.55,8 L23.45,8 C23.7536,8 24,7.553 24,7 C24,6.447 23.7536,6 23.45,6 L13.55,6 Z" id="Path"></path>
                <path d="M24,13 C24,12.447 23.7536,12 23.45,12 L13.55,12 C13.2464,12 13,12.447 13,13 C13,13.553 13.2464,14 13.55,14 L23.45,14 C23.7536,14 24,13.552 24,13 Z" id="Path"></path>
                <path d="M10.8182489,3.12088042 C10.6003632,2.940876 10.2709283,2.96437658 10.0832755,3.17488174 L6.82645729,6.81897105 L4.83421028,5.38593593 C4.60381437,5.22093189 4.27750704,5.26493296 4.10444948,5.48593838 C3.93139191,5.70644379 3.97830511,6.01995147 4.20870102,6.18545553 L6.59137005,7.89999755 C6.68519644,7.9674992 6.79466057,8 6.90412469,8 C7.05164062,8 7.19759278,7.94049854 7.30028055,7.82499571 L10.8745447,3.82489767 C11.0616763,3.61589255 11.0366559,3.30038481 10.8182489,3.12088042 Z" id="Path"></path>
                <path d="M10.8182489,10.1208804 C10.6003632,9.940876 10.2709283,9.96437658 10.0832755,10.1748817 L6.82645729,13.8189711 L4.83421028,12.3859359 C4.60381437,12.2204319 4.27750704,12.265433 4.10444948,12.4859384 C3.93139191,12.7064438 3.97830511,13.0199515 4.20870102,13.1854555 L6.59137005,14.8999975 C6.68519644,14.9674992 6.79466057,15 6.90412469,15 C7.05164062,15 7.19759278,14.9404985 7.30028055,14.8249957 L10.8745447,10.8248977 C11.0616763,10.6158925 11.0366559,10.3003848 10.8182489,10.1208804 Z" id="Path"></path>
                <path d="M10.0827543,17.1748182 L6.82593603,20.8188331 L4.83421028,19.3856306 C4.60381437,19.2201072 4.27750704,19.2651136 4.10444948,19.4856447 C3.93139191,19.7061759 3.97830511,20.0197202 4.20870102,20.1852436 L6.59137005,21.8999859 C6.68519644,21.9674954 6.79466057,22 6.90412469,22 C7.05164062,22 7.19759278,21.9404916 7.30028055,21.8249753 L10.8745447,17.82491 C11.0616763,17.6153804 11.0366559,17.2998358 10.8182489,17.1203105 C10.5998419,16.9407851 10.270407,16.9647885 10.0827543,17.1748182 Z" id="Path"></path>
                <path d="M12.5,25.0375185 L6.088,25.0375185 C3.2825,25.0375185 1,22.8395556 1,20.137963 L1,5.86251852 C1,3.16092593 3.2825,0.963444444 6.088,0.963444444 L20.912,0.963444444 C23.7175,0.963444444 26,3.16092593 26,5.86251852 L26,11.5555556 C26,11.8218148 26.224,12.037037 26.5,12.037037 C26.776,12.037037 27,11.8218148 27,11.5555556 L27,5.86251852 C27,2.62985185 24.269,0 20.912,0 L6.088,0 C2.731,0.000481481481 0,2.62985185 0,5.86251852 L0,20.1374815 C0,23.3701481 2.731,26 6.088,26 L12.5,26 C12.776,26 13,25.7847778 13,25.5185185 C13,25.2522593 12.776,25.0375185 12.5,25.0375185 Z" id="Path"></path>
            </g>
        </g>
    </g>
</svg>