<?xml version="1.0" encoding="UTF-8"?>
<svg width="65px" height="83px" viewBox="0 0 65 83" version="1.1" xmlns="http://www.w3.org/2000/svg" xmlns:xlink="http://www.w3.org/1999/xlink">
    <!-- Generator: Sketch 52.2 (67145) - http://www.bohemiancoding.com/sketch -->
    <title>ppt</title>
    <desc>Created with Sketch.</desc>
    <g id="Page-1" stroke="none" stroke-width="1" fill="none" fill-rule="evenodd">
        <g id="Главная2" transform="translate(-982.000000, -2249.000000)">
            <g id="Group-2" transform="translate(362.000000, 2008.000000)">
                <g id="ppt" transform="translate(620.000000, 241.000000)">
                    <path d="M46.0819767,0 L2.21151163,0 C0.990116279,0 0,0.970803571 0,2.85460714 L0,81.5178571 C0,82.0291964 0.990116279,83 2.21151163,83 L62.7884884,83 C64.0098837,83 65,82.0291964 65,81.5178571 L65,19.23525 C65,18.2036786 64.8594186,17.8716786 64.6115116,17.627125 L47.0222093,0.380910714 C46.7727907,0.137839286 46.434186,0 46.0819767,0 Z" id="Path" fill="#E9E9E0"></path>
                    <polygon id="Path" fill="#D9D7CA" points="46.4285714 0 46.4285714 17 63.968254 17"></polygon>
                    <path d="M62.7884884,83 L2.21151163,83 C0.990116279,83 0,82.0367647 0,80.8485294 L0,58 L65,58 L65,80.8485294 C65,82.0367647 64.0098837,83 62.7884884,83 Z" id="Path" fill="#F6712E"></path>
                    <g id="Group" transform="translate(13.412698, 63.000000)" fill="#FFFFFF">
                        <path d="M2.9094,16 L0.403619048,16 L0.403619048,0.428 L4.82881905,0.428 C5.48236825,0.428 6.12980952,0.533090909 6.76961587,0.744818182 C7.40942222,0.956545455 7.98356825,1.27336364 8.49205397,1.69527273 C9.00053968,2.11718182 9.41129841,2.62872727 9.72433016,3.22681818 C10.0373619,3.82490909 10.1946413,4.49718182 10.1946413,5.24518182 C10.1946413,6.03490909 10.0617937,6.74890909 9.7976254,7.39027273 C9.53345714,8.03163636 9.16392698,8.571 8.6905619,9.00681818 C8.21719683,9.44263636 7.64610476,9.78109091 6.9788127,10.0206364 C6.31152063,10.2601818 5.57246032,10.3791818 4.7662127,10.3791818 L2.90787302,10.3791818 L2.90787302,16 L2.9094,16 Z M2.9094,2.35054545 L2.9094,8.52 L5.20598413,8.52 C5.51138095,8.52 5.81372381,8.46745455 6.11453968,8.36081818 C6.41382857,8.25572727 6.68868571,8.08263636 6.93911111,7.84309091 C7.18953651,7.60354545 7.39109841,7.26972727 7.54379683,6.84009091 C7.69649524,6.41045455 7.77284444,5.87881818 7.77284444,5.24518182 C7.77284444,4.99172727 7.73772381,4.69809091 7.66900952,4.36890909 C7.59876825,4.03818182 7.45675873,3.72136364 7.24145397,3.41845455 C7.02462222,3.11554545 6.72227937,2.86209091 6.33289841,2.65809091 C5.94351746,2.45409091 5.42739683,2.35209091 4.78759048,2.35209091 L2.9094,2.35209091 L2.9094,2.35054545 Z" id="Shape" fill-rule="nonzero"></path>
                        <path d="M15.5406127,16 L13.0348317,16 L13.0348317,0.428 L17.4600317,0.428 C18.113581,0.428 18.7610222,0.533090909 19.4008286,0.744818182 C20.0406349,0.956545455 20.614781,1.27336364 21.1232667,1.69527273 C21.6317524,2.11718182 22.0425111,2.62872727 22.3555429,3.22681818 C22.6685746,3.82490909 22.825854,4.49718182 22.825854,5.24518182 C22.825854,6.03490909 22.6930063,6.74890909 22.4288381,7.39027273 C22.1646698,8.03163636 21.7951397,8.571 21.3217746,9.00681818 C20.8484095,9.44263636 20.2773175,9.78109091 19.6100254,10.0206364 C18.9427333,10.2601818 18.203673,10.3791818 17.3974254,10.3791818 L15.5390857,10.3791818 L15.5390857,16 L15.5406127,16 Z M15.5406127,2.35054545 L15.5406127,8.52 L17.8371968,8.52 C18.1425937,8.52 18.4449365,8.46745455 18.7457524,8.36081818 C19.0450413,8.25572727 19.3198984,8.08263636 19.5703238,7.84309091 C19.8207492,7.60354545 20.0223111,7.26972727 20.1750095,6.84009091 C20.3277079,6.41045455 20.4040571,5.87881818 20.4040571,5.24518182 C20.4040571,4.99172727 20.3689365,4.69809091 20.3002222,4.36890909 C20.229981,4.03818182 20.0879714,3.72136364 19.8726667,3.41845455 C19.6558349,3.11554545 19.3534921,2.86209091 18.9641111,2.65809091 C18.5747302,2.45409091 18.0586095,2.35209091 17.4188032,2.35209091 L15.5406127,2.35209091 L15.5406127,2.35054545 Z" id="Shape" fill-rule="nonzero"></path>
                        <polygon id="Path" points="36.5412254 0.428 36.5412254 2.16045455 31.9480571 2.16045455 31.9480571 16 29.4224254 16 29.4224254 2.16045455 24.8292571 2.16045455 24.8292571 0.428"></polygon>
                    </g>
                    <path d="M48.4920635,45 L12.3809524,45 L12.3809524,22 L48.4920635,22 L48.4920635,45 Z M15.3902116,42.125 L45.4828042,42.125 L45.4828042,24.875 L15.3902116,24.875 L15.3902116,42.125 Z" id="Shape" fill="#C8BDB8" fill-rule="nonzero"></path>
                    <path d="M20.2215829,53 C19.9327157,53 19.6388965,52.9277214 19.3731387,52.7753078 C18.5907212,52.3290659 18.3381688,51.3643036 18.806959,50.6195196 L23.758968,42.7631487 C24.2277581,42.0183647 25.2412693,41.7779598 26.0236867,42.2242016 C26.8061042,42.6704435 27.0586566,43.6352058 26.5898664,44.3799898 L21.6378574,52.2363607 C21.3291822,52.7281696 20.7828106,53 20.2215829,53 Z" id="Path" fill="#C8BDB8"></path>
                    <path d="M41.683179,53 C41.1219514,53 40.5755797,52.7281135 40.2669045,52.2377748 L35.3148955,44.3797827 C34.8461053,43.634845 35.0986577,42.6698836 35.8810752,42.2235496 C36.6634926,41.7787873 37.6770038,42.0176702 38.1457939,42.7626079 L43.0978029,50.6206 C43.5665931,51.3655376 43.3140407,52.3304991 42.5316232,52.776833 C42.2658654,52.9277065 41.9720462,53 41.683179,53 Z" id="Path" fill="#C8BDB8"></path>
                    <path d="M31.468254,25 C30.6139683,25 29.9206349,24.2848 29.9206349,23.4 L29.9206349,18.6 C29.9206349,17.7152 30.6139683,17 31.468254,17 C32.3225397,17 33.015873,17.7152 33.015873,18.6 L33.015873,23.4 C33.015873,24.2848 32.3225397,25 31.468254,25 Z" id="Path" fill="#C8BDB8"></path>
                    <rect id="Rectangle" fill="#D3CCC9" x="15.4761905" y="23" width="29.9206349" height="19"></rect>
                </g>
            </g>
        </g>
    </g>
</svg>