<?xml version="1.0" encoding="UTF-8"?>
<svg width="65px" height="82px" viewBox="0 0 65 82" version="1.1" xmlns="http://www.w3.org/2000/svg" xmlns:xlink="http://www.w3.org/1999/xlink">
    <!-- Generator: Sketch 52.2 (67145) - http://www.bohemiancoding.com/sketch -->
    <title>text</title>
    <desc>Created with Sketch.</desc>
    <g id="Page-1" stroke="none" stroke-width="1" fill="none" fill-rule="evenodd">
        <g id="Главная2" transform="translate(-362.000000, -2250.000000)">
            <g id="Group-2" transform="translate(362.000000, 2008.000000)">
                <g id="text" transform="translate(0.000000, 242.000000)">
                    <path d="M46.0819767,0 L2.21151163,0 C0.990116279,0 0,0.959107143 0,2.82021429 L0,80.5357143 C0,81.0408929 0.990116279,82 2.21151163,82 L62.7884884,82 C64.0098837,82 65,81.0408929 65,80.5357143 L65,19.0035 C65,17.9843571 64.8594186,17.6563571 64.6115116,17.41475 L47.0222093,0.376321429 C46.7727907,0.136178571 46.434186,0 46.0819767,0 Z" id="Path" fill="#E9E9E0"></path>
                    <polygon id="Path" fill="#D9D7CA" points="47.4603175 0 47.4603175 17 65 17"></polygon>
                    <path d="M62.7884884,82 L2.21151163,82 C0.990116279,82 0,80.9982353 0,79.7624706 L0,56 L65,56 L65,79.7624706 C65,80.9982353 64.0098837,82 62.7884884,82 Z" id="Path" fill="#91CDA0"></path>
                    <g id="txt" transform="translate(5.158730, 17.000000)">
                        <g id="Group" transform="translate(0.514256, 44.090909)" fill="#FFFFFF">
                            <polygon id="Path" points="11.6312462 0.440909091 11.6312462 2.07873377 7.18396151 2.07873377 7.18396151 15.1623377 4.73854633 15.1623377 4.73854633 2.07873377 0.291261662 2.07873377 0.291261662 0.440909091"></polygon>
                            <polygon id="Path" points="24.1749369 0.454545455 24.1749369 2.1541502 17.3989899 2.07873377 17.3989899 6.65178117 24.1749369 6.65178117 24.1749369 8.62050223 17.3989899 8.62050223 17.3989899 13.3803699 24.1749369 13.3803699 24.1749369 15.0439174 17.3989899 15.0439174 15.3761002 15.0439174 15.3761002 1.91406822 15.3761002 2.07873377 15.3761002 0.440909091"></polygon>
                            <polygon id="Path" points="35.4958036 8.01055195 39.2762912 15.1623377 36.4671686 15.1623377 34.1015917 9.60892857 33.8990391 9.60892857 31.3530869 15.1623377 28.5439643 15.1623377 32.324452 8.01055195 28.3014927 0.439448052 31.0706962 0.439448052 33.6979651 6.43262987 33.9005176 6.43262987 36.7510378 0.439448052 39.5202414 0.439448052"></polygon>
                            <polygon id="Path" points="53.3647805 0.440909091 53.3647805 2.07873377 48.9174958 2.07873377 48.9174958 15.1623377 46.4720806 15.1623377 46.4720806 2.07873377 42.024796 2.07873377 42.024796 0.440909091"></polygon>
                        </g>
                        <path d="M12.8242555,3.53896104 L3.95334192,3.53896104 C3.13573938,3.53896104 2.47485632,2.88441558 2.47485632,2.07792208 C2.47485632,1.27142857 3.13573938,0.616883117 3.95334192,0.616883117 L12.8242555,0.616883117 C13.641858,0.616883117 14.3027411,1.27142857 14.3027411,2.07792208 C14.3027411,2.88441558 13.641858,3.53896104 12.8242555,3.53896104 Z" id="Path" fill="#C8BDB8"></path>
                        <path d="M17.2597123,10.8441558 L3.95334192,10.8441558 C3.13573938,10.8441558 2.47485632,10.1896104 2.47485632,9.38311688 C2.47485632,8.57662338 3.13573938,7.92207792 3.95334192,7.92207792 L17.2597123,7.92207792 C18.0773148,7.92207792 18.7381979,8.57662338 18.7381979,9.38311688 C18.7381979,10.1896104 18.0773148,10.8441558 17.2597123,10.8441558 Z" id="Path" fill="#C8BDB8"></path>
                        <path d="M23.1736546,10.8441558 C22.7892484,10.8441558 22.4033637,10.6834416 22.1239299,10.4204545 C21.856324,10.1428571 21.6951691,9.7775974 21.6951691,9.38311688 C21.6951691,8.98863636 21.856324,8.62337662 22.1387147,8.34577922 C22.6709695,7.80519481 23.6763398,7.80519481 24.2233794,8.34577922 C24.4895068,8.62337662 24.6521402,9.00324675 24.6521402,9.38311688 C24.6521402,9.76298701 24.4895068,10.1428571 24.2233794,10.4204545 C23.9424672,10.6834416 23.5580609,10.8441558 23.1736546,10.8441558 Z" id="Path" fill="#C8BDB8"></path>
                        <path d="M40.9154818,10.8441558 L29.087597,10.8441558 C28.2699945,10.8441558 27.6091114,10.1896104 27.6091114,9.38311688 C27.6091114,8.57662338 28.2699945,7.92207792 29.087597,7.92207792 L40.9154818,7.92207792 C41.7330843,7.92207792 42.3939674,8.57662338 42.3939674,9.38311688 C42.3939674,10.1896104 41.7330843,10.8441558 40.9154818,10.8441558 Z" id="Path" fill="#C8BDB8"></path>
                        <path d="M3.95334192,32.7597403 C3.56893566,32.7597403 3.18305092,32.599026 2.90361714,32.336039 C2.63601125,32.0584416 2.47485632,31.6785714 2.47485632,31.2987013 C2.47485632,30.9188312 2.63601125,30.538961 2.90361714,30.2613636 C3.45065681,29.7207792 4.45602702,29.7207792 5.00306669,30.275974 C5.2691941,30.538961 5.43182751,30.9188312 5.43182751,31.2987013 C5.43182751,31.6785714 5.2691941,32.0584416 5.00306669,32.336039 C4.72215443,32.599026 4.33774817,32.7597403 3.95334192,32.7597403 Z" id="Path" fill="#C8BDB8"></path>
                        <path d="M21.6951691,32.7597403 L9.8672843,32.7597403 C9.04968176,32.7597403 8.3887987,32.1051948 8.3887987,31.2987013 C8.3887987,30.4922078 9.04968176,29.8376623 9.8672843,29.8376623 L21.6951691,29.8376623 C22.5127716,29.8376623 23.1736546,30.4922078 23.1736546,31.2987013 C23.1736546,32.1051948 22.5127716,32.7597403 21.6951691,32.7597403 Z" id="Path" fill="#C8BDB8"></path>
                        <path d="M49.7863954,10.8441558 L46.8294242,10.8441558 C46.0118216,10.8441558 45.3509386,10.1896104 45.3509386,9.38311688 C45.3509386,8.57662338 46.0118216,7.92207792 46.8294242,7.92207792 L49.7863954,7.92207792 C50.6039979,7.92207792 51.264881,8.57662338 51.264881,9.38311688 C51.264881,10.1896104 50.6039979,10.8441558 49.7863954,10.8441558 Z" id="Path" fill="#C8BDB8"></path>
                        <path d="M36.480025,18.1493506 L3.95334192,18.1493506 C3.13573938,18.1493506 2.47485632,17.4948052 2.47485632,16.6883117 C2.47485632,15.8818182 3.13573938,15.2272727 3.95334192,15.2272727 L36.480025,15.2272727 C37.2976275,15.2272727 37.9585106,15.8818182 37.9585106,16.6883117 C37.9585106,17.4948052 37.2976275,18.1493506 36.480025,18.1493506 Z" id="Path" fill="#C8BDB8"></path>
                        <path d="M49.7863954,18.1493506 L40.9154818,18.1493506 C40.0978793,18.1493506 39.4369962,17.4948052 39.4369962,16.6883117 C39.4369962,15.8818182 40.0978793,15.2272727 40.9154818,15.2272727 L49.7863954,15.2272727 C50.6039979,15.2272727 51.264881,15.8818182 51.264881,16.6883117 C51.264881,17.4948052 50.6039979,18.1493506 49.7863954,18.1493506 Z" id="Path" fill="#C8BDB8"></path>
                        <path d="M9.8672843,25.4545455 L3.95334192,25.4545455 C3.13573938,25.4545455 2.47485632,24.8 2.47485632,23.9935065 C2.47485632,23.187013 3.13573938,22.5324675 3.95334192,22.5324675 L9.8672843,22.5324675 C10.6848868,22.5324675 11.3457699,23.187013 11.3457699,23.9935065 C11.3457699,24.8 10.6848868,25.4545455 9.8672843,25.4545455 Z" id="Path" fill="#C8BDB8"></path>
                        <path d="M30.5660826,25.4545455 L15.7812267,25.4545455 C14.9636241,25.4545455 14.3027411,24.8 14.3027411,23.9935065 C14.3027411,23.187013 14.9636241,22.5324675 15.7812267,22.5324675 L30.5660826,22.5324675 C31.3836852,22.5324675 32.0445682,23.187013 32.0445682,23.9935065 C32.0445682,24.8 31.3836852,25.4545455 30.5660826,25.4545455 Z" id="Path" fill="#C8BDB8"></path>
                        <path d="M49.7863954,25.4545455 L36.480025,25.4545455 C35.6624225,25.4545455 35.0015394,24.8 35.0015394,23.9935065 C35.0015394,23.187013 35.6624225,22.5324675 36.480025,22.5324675 L49.7863954,22.5324675 C50.6039979,22.5324675 51.264881,23.187013 51.264881,23.9935065 C51.264881,24.8 50.6039979,25.4545455 49.7863954,25.4545455 Z" id="Path" fill="#C8BDB8"></path>
                    </g>
                </g>
            </g>
        </g>
    </g>
</svg>