<?xml version="1.0" encoding="UTF-8"?>
<!DOCTYPE svg  PUBLIC '-//W3C//DTD SVG 1.1//EN'  'http://www.w3.org/Graphics/SVG/1.1/DTD/svg11.dtd'>
<svg version="1.1" xmlns="http://www.w3.org/2000/svg">
<defs>
<font id="Thin_foma" horiz-adv-x="1014">
<font-face font-family="Thin_foma" font-weight="400" ascent="1638" bbox="11 -150.675 1373 1417" cap-height="1411" descent="-410" panose-1="2 0 5 0 0 0 0 0 0 0" underline-position="-292" underline-thickness="150" unicode-range="U+0021-00A0" units-per-em="2048" x-height="951"/>
<missing-glyph horiz-adv-x="401"/>
<glyph glyph-name=".notdef" horiz-adv-x="401" unicode=" "/>
<glyph d="M217 1379q54 -966 34 -1086l-43 -12h-31q-126 0 -157 1062q50 79 197 36zM300.5 98.5q-16.5 -89.5 -97.5 -75.5t-68 100.5t97.5 75.5t68 -100.5z" glyph-name="exclam" horiz-adv-x="343" unicode="!"/>
<glyph d="M338 1365l6 -322q-46 -66 -88 -30t-36 341q47 108 118 11zM155 1363l6 -317q-46 -65 -88 -29.5t-36 335.5q47 106 118 11z" glyph-name="quotedbl" horiz-adv-x="374" unicode='"'/>
<glyph d="M379 1340q76 93 172 4l-34 -303l288 -1l41 328q52 63 152 -15l-31 -310l237 -14q116 -78 2 -148l-259 1l-34 -356l322 -21q64 -96 -65 -141l-286 6l-29 -308q-70 -63 -122 15l11 308l-300 4l-18 -298q-62 -97 -139 5l23 305l-252 -1q-63 75 2 135l250 7l26 352l-266 8 q-54 78 3 144l268 4zM479 890l-20 -355l287 -6l46 360z" glyph-name="numbersign" horiz-adv-x="1330" unicode="#"/>
<glyph d="M1185 1273q115 5 88 -88l-1158 -1041q-64 20 -95 87q926 933 1165 1042zM1127.5 504.5q155.5 -171.5 9 -331.5t-324.5 -146t-224 242t169 317.5t370.5 -82zM730.5 198.5q106.5 -122.5 275 2.5t6.5 250t-275 -2.5t-6.5 -250zM221 786.5q-215 64.5 -164 282t211.5 301 t307.5 -89t3.5 -365.5t-358.5 -128.5zM420 1264q-150 49 -236.5 -149.5t112 -219.5t236.5 149.5t-112 219.5z" glyph-name="percent" horiz-adv-x="1312" unicode="%"/>
<glyph d="M408 1407q315 -34 363 -334.5t-184 -331.5q50 -55 164 -161t227 149q157 22 156 -155q-127 -53 -155 -190l164 -190q39 -149 -100 -154q-61 119 -176 161q-172 -181 -458.5 -168t-337 232t18.5 361.5t163 193.5q-206 223 -151 405t306 182zM256.5 1088.5 q46.5 -197.5 222 -217.5t134 192.5t-222 217.5t-134 -192.5zM456 196.5q259 17.5 288.5 97t-168.5 245.5t-278 101t-90.5 -263t248.5 -180.5z" glyph-name="ampersand" horiz-adv-x="1231" unicode="&amp;"/>
<glyph d="M155 1363l6 -317q-46 -65 -88 -29.5t-36 335.5q47 106 118 11z" glyph-name="quotesingle" horiz-adv-x="211" unicode="'"/>
<glyph d="M283 1394q106 52 97 -49q-219 -345 -219 -582q-19 -247 198 -629q78 -141 -51 -97q-284 257 -276 706.5t251 650.5z" glyph-name="parenleft" horiz-adv-x="460" unicode="("/>
<glyph d="M431 743.5q9 -449.5 -308 -706.5q-143 -44 -56 97q241 382 220 629q0 237 -244 582q-10 101 109 49q270 -201 279 -650.5z" glyph-name="parenright" horiz-adv-x="460" unicode=")"/>
<glyph d="M216 1373q32 70 56 2l10 -136l85 124q90 46 52 -38l-89 -112l126 2q116 -36 20 -69l-140 3l100 -119q-3 -66 -55 -42l-93 116l3 -122q-21 -77 -60 -12l-7 130l-89 -100q-76 -37 -44 54l99 97l-139 4q-51 32 0 67l126 -2l-79 97q-19 79 51 41l69 -105z" glyph-name="asterisk" horiz-adv-x="547" unicode="*"/>
<glyph d="M824 1269l-76 -453l438 -12q148 -106 -31 -188l-435 10l-92 -510q-118 -195 -176 48l74 463l-397 22q-208 102 33 188l387 -11l72 460q192 228 203 -17z" glyph-name="plus" horiz-adv-x="1299" unicode="+"/>
<glyph d="M114 6q-68 29 -48.5 108t91 67.5t77 -106.5t-91 -195t-28.5 126z" glyph-name="comma" horiz-adv-x="557" unicode=","/>
<glyph d="M77 717q328 1 683 1q65 -51 15 -110q-359 -29 -699 -1q-88 62 1 110z" glyph-name="hyphen" horiz-adv-x="852" unicode="-"/>
<glyph d="M77 717q328 1 683 1q65 -51 15 -110q-359 -29 -699 -1q-88 62 1 110z" glyph-name="hyphen" horiz-adv-x="852" unicode="­"/>
<glyph d="M231 108.5q-17 -89.5 -98 -75.5t-67.5 100.5t98 75.5t67.5 -100.5z" glyph-name="period" horiz-adv-x="291" unicode="."/>
<glyph d="M550 1273q-160 -608 -397 -1220q-95 -55 -116 84q201 620 388 1193q105 129 125 -57z" glyph-name="slash" horiz-adv-x="578" unicode="/"/>
<glyph d="M797 1244q261 -255 171 -745t-479 -471t-435 582.5t218 726t525 -92.5zM226.5 674.5q19.5 -275.5 168 -400t324 147.5t-9.5 559t-343.5 128t-139 -434.5z" glyph-name="zero" unicode="0"/>
<glyph d="M704 1417h59q43 0 31 -44.5t-31 -1293.5q0 -59 -59 -59q-43 0 -90 89v981q-123 0 -475 -297h-60q-59 0 -59 59q106 153 684 565z" glyph-name="one" horiz-adv-x="881" unicode="1"/>
<glyph d="M299 1417q339 0 449 -215t1 -472t-294.5 -403.5t-139 -142.5t214 0.5t290 0t122.5 -80.5q0 -40 -84 -84q-484 28 -782 28l-56 84q615 594 615 810v28q0 244 -179 278t-223.5 -24t-114.5 -58t-70 55v28q119 168 251 168z" glyph-name="two" horiz-adv-x="970" unicode="2"/>
<glyph d="M333 1402.5q92 16.5 241.5 -25.5t206 -203.5t-98.5 -370.5q295 -163 295 -485q-46 -236 -406 -298q-376 0 -541 271q27 81 100 65q226 -141 387.5 -159t236.5 91t-6.5 241t-365.5 167v55q243 169 243 291t-90.5 184t-200.5 3q-99 -73 -115 -73h-27q-54 0 -54 71.5 t51.5 115t143.5 60z" glyph-name="three" unicode="3"/>
<glyph d="M163 1365q46 -68 118 -702h461q-3 198 -16 407.5t66 235.5h25q78 -26 78 -154v-52q115 -969 54 -1031t-106.5 17.5t-92.5 436.5q-345 -14 -601 -14q-26 90 -93.5 470t-3 417t110.5 -31z" glyph-name="four" unicode="4"/>
<glyph d="M861 1321.5q8 -91.5 -143 -103.5q-398 28 -537 28l43 -377q472 12 608 -145.5t103.5 -369t-192 -286.5t-372 -47t-324.5 222q-11 97 65.5 71.5t233.5 -90.5t264.5 -7t107.5 211.5t-153 209t-297 21.5q-248 2 -248 503q0 140 27.5 194t416.5 55.5t397 -90z" glyph-name="five" unicode="5"/>
<glyph d="M1036 1052q-120 -93 -182.5 28.5t-196.5 136.5t-330 -350q428 -3 584.5 -226t11 -460t-532 -115.5t-336.5 519.5t210.5 611.5t405.5 204t366 -348.5zM509.5 239q251.5 -65 262 156t-229 279.5t-262 -156t229 -279.5z" glyph-name="six" horiz-adv-x="1122" unicode="6"/>
<glyph d="M988 1277q-203 -426 -359 -1227l-60 -30h-30q-60 0 -60 60v30q0 257 270 1048q-221 0 -405 15t-284 15l-30 59v60q0 60 479 60t479 -90z" glyph-name="seven" unicode="7"/>
<glyph d="M795.5 1165.5q23.5 -232.5 -174.5 -408.5q341 -170 356.5 -433.5t-401 -300.5t-520 239t263.5 495q-286 176 -262 413t369 232.5t368.5 -237zM295 1227.5q-66 -51.5 -24.5 -204.5t202 -127.5t164 168t-136 179t-205.5 -15zM275.5 310q62.5 -132 226 -126.5t209.5 101.5 t-4 189t-141 127.5t-222 -62.5t-68.5 -229z" glyph-name="eight" unicode="8"/>
<glyph d="M57 333q109 105 184.5 -9t210 -114.5t290.5 381.5q-425 -42 -604.5 163.5t-59.5 456.5t517 171t389.5 -481t-145 -630.5t-382 -245.5t-400.5 308zM494.5 1197q-256.5 38 -243.5 -183t257 -254t243.5 183t-257 254z" glyph-name="nine" horiz-adv-x="1008" unicode="9"/>
<glyph d="M231 118.5q-17 -89.5 -98 -75.5t-67.5 100.5t98 75.5t67.5 -100.5zM231 758.5q-17 -89.5 -98 -75.5t-67.5 100.5t98 75.5t67.5 -100.5z" glyph-name="colon" horiz-adv-x="291" unicode=":"/>
<glyph d="M105 667q311 1 649 1q61 -51 14 -110q-341 -29 -664 -1q-84 62 1 110zM105 947q311 1 649 1q61 -51 14 -110q-341 -29 -664 -1q-84 62 1 110z" glyph-name="equal" horiz-adv-x="869" unicode="="/>
<glyph d="M873 1084.5q-14 -268.5 -207.5 -332.5t-176.5 -361q-65 -141 -189 6q32 343 214.5 450.5t140 245t-214 120t-233.5 -194.5q-126 -63 -186 43q98 373 482 332.5t370 -309zM461.5 189.5q71.5 -49.5 23.5 -123.5t-137.5 -25.5t-23.5 123.5t137.5 25.5z" glyph-name="question" horiz-adv-x="924" unicode="?"/>
<glyph d="M560 1404q372 -14 533 -172.5t205.5 -325.5t15 -386t-214.5 -195q-90 21 -117 94h-47q-123 -94 -258 -94h-47q-309 70 -305 446q52 305 281 305q271 0 377 -182.5t46 -310.5q0 -62 117 -117q70 113 31 353t-259 361t-399.5 99t-269 -157t-88.5 -317t84 -348.5t225 -231 t277 -64.5h47l164 23q93 -117 -140 -164q-599 24 -723 433t-3.5 670.5t421.5 280.5h47zM442 771q-3 -251 188 -329q219 0 281 188q48 315 -303 334q-135 -29 -166 -193z" glyph-name="at" horiz-adv-x="1368" unicode="@"/>
<glyph d="M325 1413h21q540 -940 675 -1328l-78 -33l-258 422l-445 -26l-133 -423l-96 7q214 1381 314 1381zM346 1146l-76 -570l355 22z" glyph-name="A" horiz-adv-x="1042" unicode="A"/>
<glyph d="M44 1409h293q341 0 395 -269q-4 -162 -176 -267l-54 -33q517 -219 517 -576q-120 -244 -390 -244q-438 0 -411 82q-198 1234 -198 1283q24 0 24 24zM178 1290q37 -330 53 -396q238 -21 351 196q3 221 -404 200zM264 727q48 -305 97 -552l219 -33q293 0 293 244 q-286 365 -609 341z" glyph-name="B" horiz-adv-x="1046" unicode="B"/>
<glyph d="M864 1215q143 -189 129.5 -274t-69.5 -85t-149 150t-300 194q-226 -44 -275.5 -289.5t26.5 -492t327 -213.5q328 28 564 190q55 -9 55 -58v-57q-203 -230 -592.5 -268t-503 331.5t-20.5 700.5t351 350q314 10 457 -179z" glyph-name="C" horiz-adv-x="1198" unicode="C"/>
<glyph d="M108 1400q440 0 745.5 -189.5t288.5 -653t-800 -537.5h-182q-78 0 -130 1276q39 104 78 104zM186 1192q26 -391 39 -687.5t92 -342.5q389 -5 566.5 205.5t72 435t-534.5 389.5l-183 26z" glyph-name="D" horiz-adv-x="1189" unicode="D"/>
<glyph d="M49 1389q939 44 946 -61l-34 -106l-765 22l24 -425l380 -7l-2 -115q-366 -24 -373 -1q24 -524 60 -508l786 8l21 -47v-24q0 -81 -441 -95l-505 23q-36 75 -105 1186z" glyph-name="E" horiz-adv-x="1126" unicode="E"/>
<glyph d="M717 1413q222 -50 222 -111q0 -40 -83 -84h-370.5t-270.5 -56l27 -344q12 -46 187.5 -30t192.5 -81t-153 -99.5t-198 -58.5v-83q0 -87 111 -390l-83 -56h-28q-167 0 -251 1337l56 28q507 28 641 28z" glyph-name="F" horiz-adv-x="966" unicode="F"/>
<glyph d="M1150.5 1168.5q75.5 -172.5 4 -204.5t-185 160t-458.5 45t-315.5 -442.5t249.5 -439t457 -105.5t237 163q0 135 -352 135q-162 27 -162 81v27q8 54 54 54h243q289 0 379 -162v-54q-25 -317 -376 -387t-618.5 132.5t-272 566t277 534t522.5 120t316.5 -223z" glyph-name="G" horiz-adv-x="1328" unicode="G"/>
<glyph d="M83 1396q127 4 132 -582h80h358t312 21l-9 85q0 139 -13 294.5t68 166.5t132 -800l51 -500q-26 -61 -79 -61q-92 0 -132 662h-27q-448 -27 -661 -27h-27l-53 -26q83 -501 28.5 -586.5t-121 84.5t-94.5 706.5t55 562.5z" glyph-name="H" horiz-adv-x="1236" unicode="H"/>
<glyph d="M186 1254v-617q0 -85 22.5 -341.5t-11.5 -266t-74 43t-59.5 344.5t-19.5 637.5t75 356.5t67 -157z" glyph-name="I" horiz-adv-x="270" unicode="I"/>
<glyph d="M941 1247q0 -61 -194 -35q-79 -5 -54.5 -260.5t44 -503.5t-136.5 -366.5t-368 17.5t-203 248t52 66.5t265 -193.5t222 321q12 671 -89 702q-149 5 -287 0.5t-39 87.5t433 69t355 -153z" glyph-name="J" horiz-adv-x="974" unicode="J"/>
<glyph d="M75 1404q66 0 178 -657h22q470 610 513 610h22q45 -7 45 -47v-47l-468 -633q421 -210 735 -516v-24q0 -53 -111 -70q-217 205 -647 422l-89 71l-22 -47l67 -352l-45 -24h-22q-116 0 -169.5 547.5t-53.5 696.5v23q7 47 45 47z" glyph-name="K" horiz-adv-x="1156" unicode="K"/>
<glyph d="M110 1404l106 -80l-26 -319v-799l708 29q42 -49 37 -109q-24 -79 -354.5 -88.5t-435 -3t-115.5 118.5v958q0 293 80 293z" glyph-name="L" horiz-adv-x="962" unicode="L"/>
<glyph d="M63 1400h43l492 -484h22q337 387 449 387q31 0 64 -72v-194q0 -204 65 -993l-43 -24q-130 20 -150 1041l-407 -339q-243 233 -450 412v-267q0 -65 43 -653v-25q0 -48 -43 -48h-21q-47 0 -107 484v363v194v170q7 48 43 48z" glyph-name="M" horiz-adv-x="1227" unicode="M"/>
<glyph d="M1135 1016.5q13 -386.5 26 -715.5t-113 -267.5t-270 260.5t-570 740q143 -1035 22.5 -1015.5t-111.5 197.5q-103 1078 -20 1100.5t126 -42t772 -993.5q-143 1110 -9 1116t147 -380.5z" glyph-name="N" horiz-adv-x="1216" unicode="N"/>
<glyph d="M665 1402q347 0 590 -427q115 -294 4 -578t-471 -377h-99q-376 51 -533.5 262t-109 573.5t398.5 505.5q148 41 220 41zM198.5 632.5q-0.5 -219.5 172.5 -327.5t460 -74.5t310 403.5t-189.5 493.5t-408.5 64t-270 -199.5t-74.5 -359.5z" glyph-name="O" horiz-adv-x="1354" unicode="O"/>
<glyph d="M73 1404q846 39 879 -452v-80q0 -287 -453 -320h-186q53 -229 53 -292v-187q0 -53 -53 -53h-27q-127 0 -266 1357zM238 1209v-76q0 -401 151 -401h50q326 18 326 100v25q0 274 -206.5 331.5t-320.5 20.5z" glyph-name="P" horiz-adv-x="978" unicode="P"/>
<glyph d="M937.5 1329q348.5 -130 382.5 -584t-287 -622l74 -123q50 -150 -95 -83l-100 150q-185 -73 -426 29t-353.5 318t-78 525.5t284.5 414.5t598.5 -25zM206.5 692.5q57.5 -314.5 236.5 -411.5t374 -64q-104 179 -144 229q-5 153 113 74l150 -240q289 140 245.5 488.5 t-362 441.5t-494.5 -55t-118.5 -462.5z" glyph-name="Q" horiz-adv-x="1362" unicode="Q"/>
<glyph d="M858.5 1081q33.5 -251 -177.5 -413q225 -323 302 -534q-7 -131 -153 -77l-356 563l-233 -20q42 -581 -49 -585t-100 130q-94 1139 -56 1189.5t100.5 53t156.5 17.5l140 -1q392 -72 425.5 -323zM208 1252q-28 -198 3 -495l293 13q207 70 180.5 290t-476.5 192z" glyph-name="R" horiz-adv-x="1004" unicode="R"/>
<glyph d="M604 1396q330 0 437 -361q-3 -84 -89 -63q-208 313 -363 262.5t-187 -173t272.5 -243t332.5 -371.5t-134 -347.5t-388.5 -68t-447.5 398.5q22 57 86.5 96.5t147 -146t315.5 -178.5t246.5 186.5t-255.5 293.5q-424 180 -328.5 424t355.5 290z" glyph-name="S" horiz-adv-x="1084" unicode="S"/>
<glyph d="M1181 1290v-30q0 -63 -54 -63l-445 18q13 -274 117 -1164l-77 -31h-27q-99 0 -208 1202q-456 -35 -467 68q0 79 287 105q865 11 874 -105z" glyph-name="T" horiz-adv-x="1219" unicode="T"/>
<glyph d="M280 1302q-164 -901 83.5 -1049.5t482 26.5t89.5 1020q25 129 158 50q93 -373 55 -844.5t-504 -489t-552 338.5t-31 948q101 153 219 0z" glyph-name="U" horiz-adv-x="1210" unicode="U"/>
<glyph d="M203 1339q45 -154 447 -1042q317 523 536 1054q131 84 175 -94q-74 -213 -541 -1055q-150 -360 -336 12q-206 447 -446 1045q6 247 165 80z" glyph-name="V" horiz-adv-x="1388" unicode="V"/>
<glyph d="M184 1357l269 -1003l242 205l245 -262l258 1016q146 145 175 -48l-345 -1170q-64 -142 -168 -18l-171 256l-220 -228q-102 -83 -133 33l-302 1156q31 175 150 63z" glyph-name="W" horiz-adv-x="1636" unicode="W"/>
<glyph d="M71 1404h26q35 0 167.5 -186t320.5 -373q230 283 276.5 422.5t185.5 136.5l26 -59q3 -160 -363 -633l484 -579q8 -113 -69 -113q-65 0 -528 538q-141 -202 -200.5 -294.5t-196.5 -214.5q-37 0 -77 89q94 211 347 568q-450 490 -450 669z" glyph-name="X" horiz-adv-x="1236" unicode="X"/>
<glyph d="M154 1323l427 -414l450 473q125 10 80 -120q-279 -317 -360 -437.5t-90 -429.5l-4 -209q0 -144 -83 -166h-28q-55 0 -55 55v499q0 167 -194 332q-277 301 -274.5 414t131.5 3z" glyph-name="Y" horiz-adv-x="1156" unicode="Y"/>
<glyph d="M109 1396q477 -26 794 -106v-53q0 -68 -608 -1005v-27q481 -26 608 -26q83 -118 -26 -159h-265h-291q-291 0 -291 79v53q561 773 635 1006h-26q-556 0 -556 106q-27 106 26 132z" glyph-name="Z" horiz-adv-x="995" unicode="Z"/>
<glyph d="M166 1342q186 -583 387 -1213q-21 -141 -116 -85q-236 622 -396 1240q20 189 125 58z" glyph-name="backslash" horiz-adv-x="578" unicode="\"/>
<glyph d="M86 147q395 1 823 1q77 -51 18 -110q-433 -29 -842 -1q-106 62 1 110z" glyph-name="underscore" horiz-adv-x="976" unicode="_"/>
<glyph d="M233 1006h15q382 -664 477 -939l-55 -23l-183 298l-314 -18l-94 -299l-68 5q151 976 222 976zM248 817l-54 -402l251 15z" glyph-name="a" horiz-adv-x="746" unicode="a"/>
<glyph d="M37 995h205q240 0 278 -188q-3 -114 -124 -188l-38 -24q363 -153 363 -404q-84 -171 -273 -171q-308 0 -289 57q-139 867 -139 901q17 0 17 17zM131 912q26 -232 37 -279q167 -14 247 138q2 155 -284 141zM191 516q34 -214 68 -387l154 -23q206 0 206 171 q-201 256 -428 239z" glyph-name="b" horiz-adv-x="742" unicode="b"/>
<glyph d="M622.5 872.5q102.5 -135.5 93 -196.5t-49.5 -61t-106.5 107.5t-214.5 139.5q-163 -32 -198 -208t19.5 -352t234.5 -153q234 20 403 136q40 -6 40 -41v-42q-146 -164 -425 -191t-360 237t-14.5 501.5t251.5 250.5q224 8 326.5 -127.5z" glyph-name="c" horiz-adv-x="860" unicode="c"/>
<glyph d="M85 997q311 0 528 -134t204.5 -462.5t-566.5 -380.5h-129q-55 0 -92 903q28 74 55 74zM141 850q18 -277 27 -487t66 -242q274 -4 400 145t51.5 308t-378.5 276l-130 18z" glyph-name="d" horiz-adv-x="856" unicode="d"/>
<glyph d="M200.5 1006q150.5 9 357 1t165 -70.5t-546.5 -61.5l9 -272q254 11 255.5 -52.5t-133.5 -63.5t-120 -66q-14 -293 65 -285l510 9l15 -33v-18q0 -58 -170 -68t-344.5 -8.5t-183 48t-32 436.5t-10.5 442.5t163.5 61.5z" glyph-name="e" horiz-adv-x="814" unicode="e"/>
<glyph d="M510 999q156 -35 156 -78q0 -28 -58 -59h-261t-190 -39l19 -242q8 -32 131.5 -21t135.5 -57t-107.5 -70t-139.5 -41v-59q0 -61 79 -274l-59 -39h-20q-117 0 -176 940l39 20q357 19 451 19z" glyph-name="f" horiz-adv-x="700" unicode="f"/>
<glyph d="M818 827q53 -121 3 -143.5t-130 112.5t-322 31.5t-221.5 -311t175 -308t321 -74t166.5 113.5q0 95 -247 95q-114 19 -114 57v19q6 38 38 38h171q202 0 266 -114v-38q-18 -222 -264.5 -271.5t-434.5 93t-191 398t194.5 375t367 84t222.5 -156.5z" glyph-name="g" horiz-adv-x="953" unicode="g"/>
<glyph d="M60 998q80 3 84 -415h51h226t197 15l-5 61q0 99 -8.5 209.5t43 118.5t83.5 -569l32 -356q-17 -44 -49 -44q-59 0 -85 471h-16q-283 -19 -418 -19h-17l-34 -18q52 -357 18 -417.5t-76 60t-60 502.5t34 401z" glyph-name="h" horiz-adv-x="797" unicode="h"/>
<glyph d="M143 881v-429q0 -60 15.5 -238.5t-8 -185t-51.5 30t-41.5 240t-13.5 444t52.5 248t46.5 -109.5z" glyph-name="i" horiz-adv-x="219" unicode="i"/>
<glyph d="M666 879q0 -42 -136 -24q-56 -4 -38.5 -182.5t31 -352t-95.5 -256t-257 12.5t-141.5 173t36 46.5t185 -135t155.5 224.5q9 469 -62 491q-104 3 -200.5 0t-27.5 61t302.5 48t248.5 -107z" glyph-name="j" horiz-adv-x="709" unicode="j"/>
<glyph d="M61 997q48 0 126 -464h16q332 431 362 431h16q31 -5 31 -33v-33l-330 -447q298 -148 519 -365v-16q0 -38 -78 -50q-154 145 -457 298l-63 50l-16 -33l48 -249l-32 -16h-16q-82 0 -119.5 386t-37.5 491v17q5 33 31 33z" glyph-name="k" horiz-adv-x="831" unicode="k"/>
<glyph d="M86 990l74 -56l-18 -223v-557l494 20q29 -34 26 -76q-17 -56 -248 -62.5t-303.5 -2t-80.5 82.5v670q0 204 56 204z" glyph-name="l" horiz-adv-x="696" unicode="l"/>
<glyph d="M51 1004h30l351 -345h15q241 276 321 276q22 0 46 -52v-138q0 -145 46 -708l-31 -17q-93 14 -107 742l-290 -241q-173 166 -320 293v-190q0 -46 30 -466v-17q0 -35 -30 -35h-16q-33 0 -76 346v259v138v120q5 35 31 35z" glyph-name="m" horiz-adv-x="898" unicode="m"/>
<glyph d="M793.5 727q9.5 -274 18.5 -508t-80.5 -190t-191.5 185t-405 525q102 -734 16.5 -720.5t-79.5 140.5q-73 765 -14 781t89.5 -30t548.5 -705q-102 788 -7 792t104.5 -270z" glyph-name="n" horiz-adv-x="848" unicode="n"/>
<glyph d="M479 994q245 0 416 -301q81 -207 3 -407t-332 -266h-70q-265 36 -376 185t-76.5 404.5t280.5 355.5q105 29 155 29zM150.5 452q-0.5 -155 121.5 -231t324 -52.5t218.5 284.5t-133.5 348t-288 45t-190 -140.5t-52.5 -253.5z" glyph-name="o" horiz-adv-x="970" unicode="o"/>
<glyph d="M58 999q597 27 621 -320v-57q0 -202 -320 -226h-132q38 -162 38 -207v-131q0 -38 -38 -38h-19q-90 0 -188 960zM174 861v-54q0 -284 107 -284h35q231 13 231 71v18q0 194 -146 234.5t-227 14.5z" glyph-name="p" horiz-adv-x="709" unicode="p"/>
<glyph d="M676 940.5q254 -94.5 279 -425.5t-210 -453l55 -90q36 -109 -70 -61l-73 110q-135 -54 -310.5 20.5t-257.5 232t-57 383.5t207.5 302t436.5 -18.5zM143 476.5q42 -229.5 172.5 -300t272.5 -46.5q-75 131 -105 167q-3 112 82 54l110 -175q211 102 179 356t-264 322 t-360.5 -40t-86.5 -337.5z" glyph-name="q" horiz-adv-x="1000" unicode="q"/>
<glyph d="M616 770.5q24 -178.5 -126 -293.5q160 -228 214 -378q-5 -93 -108 -54l-253 399l-165 -14q30 -413 -34.5 -415.5t-70.5 92.5q-67 807 -40 843t71 38t111 12l99 -1q278 -50 302 -228.5zM155 891q-20 -140 2 -334l210 6q144 36 125.5 192t-337.5 136z" glyph-name="r" horiz-adv-x="725" unicode="r"/>
<glyph d="M427 993q233 0 309 -255q-2 -59 -63 -44q-147 221 -256.5 185t-132 -122t192.5 -171.5t235 -263t-94.5 -245.5t-274.5 -47.5t-316 281.5q16 40 61.5 68t103.5 -103t222.5 -126t174.5 131.5t-181 207.5q-299 127 -232 299.5t251 204.5z" glyph-name="s" horiz-adv-x="776" unicode="s"/>
<glyph d="M858 926q30 -54 -25 -74l-331 15q10 -190 83 -825l-54 -22h-19q-71 0 -149 858q-325 -26 -333 48q0 56 205 75q617 8 623 -75z" glyph-name="t" horiz-adv-x="898" unicode="t"/>
<glyph d="M213 939q-118 -647 59.5 -753.5t346 19t64.5 731.5q17 93 113 36q67 -268 39.5 -606t-361.5 -350.5t-396 243t-22 680.5q72 109 157 0z" glyph-name="u" horiz-adv-x="877" unicode="u"/>
<glyph d="M153 942q32 -107 312 -727q222 365 374 736q92 59 123 -65q-51 -149 -378 -738q-105 -251 -234 9q-144 312 -312 730q4 172 115 55z" glyph-name="v" horiz-adv-x="1000" unicode="v"/>
<glyph d="M138 953l186 -693l168 142l170 -181l179 702q101 100 121 -33l-239 -808q-44 -99 -117 -13l-118 177l-152 -157q-71 -58 -93 22l-209 799q21 120 104 43z" glyph-name="w" horiz-adv-x="1000" unicode="w"/>
<glyph d="M56 1001h19q24 0 118 -132t227 -265q163 201 196 300t132 97l18 -42q2 -114 -257 -449l343 -410q5 -80 -49 -80q-46 0 -374 381q-100 -143 -142.5 -208.5t-139.5 -151.5q-26 0 -54 62q67 150 246 403q-319 347 -319 474z" glyph-name="x" horiz-adv-x="886" unicode="x"/>
<glyph d="M117 957l307 -298l324 341q90 7 58 -87q-201 -228 -259.5 -314.5t-64.5 -308.5l-3 -151q0 -103 -60 -119h-20q-40 0 -40 40v358q0 121 -139 239q-199 217 -197 298t94 2z" glyph-name="y" horiz-adv-x="839" unicode="y"/>
<glyph d="M86 996q338 -18 564 -75v-37q0 -49 -432 -714v-19q342 -18 432 -18q58 -84 -19 -113h-188h-206q-207 0 -207 56v38q398 548 451 713h-19q-394 0 -394 75q-19 76 18 94z" glyph-name="z" horiz-adv-x="721" unicode="z"/>
</font>
</defs>
</svg>
